/* XPM */
static char *a309faedcb304f05d31502faae36c7f3[] = {
/* columns rows colors chars-per-pixel */
"64 64 256 2 ",
"   c #583917",
".  c #4D2E11",
"X  c #6A3C17",
"o  c #743E1B",
"O  c #793E19",
"+  c #7A3E13",
"@  c #593C27",
"#  c #623E22",
"$  c #6B411C",
"%  c #684418",
"&  c #7E4215",
"*  c #75431A",
"=  c #7C431B",
"-  c #78481A",
";  c #7C5617",
":  c #6D4223",
">  c #6D462B",
",  c #684529",
"<  c #724424",
"1  c #744825",
"2  c #734A2B",
"3  c #784A28",
"4  c #7C5C2C",
"5  c #795524",
"6  c #6B4C3B",
"7  c #6C4A34",
"8  c #724C33",
"9  c #714D38",
"0  c #75513C",
"q  c #7B5436",
"w  c #5B402D",
"e  c #6A5345",
"r  c #755441",
"t  c #7A5945",
"y  c #7B5C4B",
"u  c #755949",
"i  c #755C57",
"p  c #6B504A",
"a  c #7D6356",
"s  c #7F604E",
"d  c #7D6563",
"f  c #814819",
"g  c #81591C",
"h  c #88592A",
"j  c #865937",
"k  c #965D36",
"l  c #886428",
"z  c #94662C",
"x  c #896437",
"c  c #94693A",
"v  c #9D753A",
"b  c #977639",
"n  c #9A722D",
"m  c #A47B3C",
"M  c #A0653B",
"N  c #845E46",
"B  c #8A6249",
"V  c #936C43",
"C  c #976A49",
"Z  c #9C7B4D",
"A  c #997349",
"S  c #836453",
"D  c #886A5A",
"F  c #966C56",
"G  c #9E7D54",
"H  c #9A7758",
"J  c #8D7254",
"K  c #A27A45",
"L  c #AC7E46",
"P  c #AA764B",
"I  c #A47D4C",
"U  c #AB7C4C",
"Y  c #A47348",
"T  c #B27C4C",
"R  c #A47D52",
"E  c #AB7D54",
"W  c #A47757",
"Q  c #B37D54",
"!  c #A06A44",
"~  c #886D64",
"^  c #8C7366",
"/  c #967768",
"(  c #977C74",
")  c #8E706C",
"_  c #A67B66",
"`  c #A3813F",
"'  c #9A855A",
"]  c #AC834A",
"[  c #AD8A4A",
"{  c #A78445",
"}  c #B38B4C",
"|  c #B7864C",
" . c #A38353",
".. c #AC8254",
"X. c #AD845B",
"o. c #AC8A5C",
"O. c #A78659",
"+. c #BD8C53",
"@. c #B4835B",
"#. c #B88857",
"$. c #BB9554",
"%. c #B99659",
"&. c #B29251",
"*. c #9B8C65",
"=. c #9D8278",
"-. c #AD8C62",
";. c #A68568",
":. c #B78A66",
">. c #BB9463",
",. c #B99668",
"<. c #A68678",
"1. c #B68C77",
"2. c #B99876",
"3. c #AB936D",
"4. c #B4A379",
"5. c #BCA05F",
"6. c #C38D5A",
"7. c #C59354",
"8. c #C99556",
"9. c #CA935B",
"0. c #CD9B5C",
"q. c #C59A58",
"w. c #D0965E",
"e. c #C38D64",
"r. c #CD9463",
"t. c #C79967",
"y. c #D29B6C",
"u. c #D69B63",
"i. c #C79876",
"p. c #D29E79",
"a. c #C9A568",
"s. c #D3AD6D",
"d. c #D5A466",
"f. c #CCA37B",
"g. c #C8A376",
"h. c #D4A374",
"j. c #D3A47D",
"k. c #D4AA7D",
"l. c #D9A776",
"z. c #D8B37E",
"x. c #E3AF7D",
"c. c #9D8F8C",
"v. c #9E918D",
"b. c #9F9997",
"n. c #A78A85",
"m. c #A99189",
"M. c #B3958C",
"N. c #B79789",
"B. c #A79B98",
"V. c #B89B95",
"C. c #AD8E93",
"Z. c #AFA39C",
"A. c #ABA699",
"S. c #B5A79B",
"D. c #BAA18D",
"F. c #AD9EA0",
"G. c #A5A3A4",
"H. c #ABA4A4",
"J. c #ACACAB",
"K. c #A9AAA5",
"L. c #B3A6A5",
"P. c #B4ABAA",
"I. c #BAADAB",
"U. c #B7ACA3",
"Y. c #ADB1A2",
"T. c #B2B3A6",
"R. c #B5B2AB",
"E. c #BAB4AE",
"W. c #BBB8AC",
"Q. c #BCB5B1",
"!. c #BEB9B3",
"~. c #B4B3B1",
"^. c #C69C87",
"/. c #C69E8E",
"(. c #CCA785",
"). c #DDAC8B",
"_. c #D6A785",
"`. c #D8B488",
"'. c #C6A599",
"]. c #D5AB97",
"[. c #DCB695",
"{. c #C9B398",
"}. c #E6B78A",
"|. c #E0B493",
" X c #E6BB98",
".X c #E1AE83",
"XX c #C2ADA4",
"oX c #C7ACA6",
"OX c #D1AEA2",
"+X c #C7B5A9",
"@X c #D8B6A8",
"#X c #C3B4B2",
"$X c #C2BCB5",
"%X c #C4BEB9",
"&X c #C8BCBB",
"*X c #CBBAB4",
"=X c #D7BCB5",
"-X c #E3BCA7",
";X c #DEC29D",
":X c #E9C497",
">X c #F2C89B",
",X c #C5C1B7",
"<X c #C6C1BB",
"1X c #CAC3BD",
"2X c #CAC6BB",
"3X c #D8C3BB",
"4X c #D8C1A9",
"5X c #EAC7A8",
"6X c #F4CAA6",
"7X c #F4D2AC",
"8X c #F8D7AA",
"9X c #E8C6B5",
"0X c #F2CEB6",
"qX c #F9D7B8",
"wX c #E9D2B4",
"eX c #FCE4BB",
"rX c #F8E0B4",
"tX c #CABDC4",
"yX c #CBC5C1",
"uX c #CEC9C7",
"iX c #D4CAC8",
"pX c #D3D6CA",
"aX c #D3D9CD",
"sX c #D3D4C8",
"dX c #D7CDD3",
"fX c #D5D5D4",
"gX c #DDDBD3",
"hX c #D3D2DA",
"jX c #DDDBDC",
"kX c #DAD6D5",
"lX c gray81",
"zX c #E9D8CA",
"xX c #FDDAC2",
"cX c #E2DDD5",
"vX c #E2DEDB",
"bX c #E9D9D4",
"nX c #FBDDD5",
"mX c #E7CCC1",
"MX c #FDE6C4",
"NX c #E4E1DC",
"BX c #EDE4DC",
"VX c #E8E0D5",
"CX c #F7E4D8",
"ZX c #E1DCE0",
"AX c #E5E4E4",
"SX c #EBE6E2",
"DX c #EDE9E6",
"FX c #ECEBEA",
"GX c #F2EBE5",
"HX c #F2EEEA",
"JX c #F0E7E1",
"KX c #F5F1EE",
"LX c #F8F2EE",
"PX c #F6F3F0",
"IX c #F8F4F1",
"UX c #DFE1DD",
/* pixels */
"!.!.!.!.!.%X!.%X$X<XiXyX&XyXiXiXmXzXmXzXmXzXzXbXzXzXzXzXzXzXzXzXMXVXMXVXBXVXCXCXCXCXCXCXnXnXCXnXVXBXVXNXSXSXSXbXSXSXSXSXSXSXSXSX",
"Q.!.!.!.$X!.%X%X<X%XyXyXtX3X3X2XS.XXS.+XXXU.XXU.XXXX+X{.{.+X+X*X+X+X+X@X*X3X3X3X4X+X4X9X=X3X3X3XVXBXBXBXJXSXSXSXSXSXSXSXSXSXSXAX",
"!.!.$X!.$X$X%X<X<X<X1XyX1X1X2X2X` { n m ` ` { [ [ [ [ [ [ [ [ ..+.| +.+.+.6.#.%.5.5.5.5.%.&.%.5.bXJXJXBXJXSXJXJXDXSXSXSXSXSXBXAX",
"$X!.$X$X%X%X%X&X<X&X1XyXyX2X2X*X[ v g f ; ; ; g g l l l l l l l z z z z z z z z 4 l b b K b  .5.bXBXSXBXZXSXSXDXSXDXSXSXDXSXSXJX",
"$X!.$X$X$X&X<X<X2X&X&XyXyX3X&X#X@.P h h h h k k z M ! ! Y P Q Q #.:.:.:.i.i.i.i.(.(.[.(.^.:.X.p.cXBXJXSXSXBXSXDXSXSXSXSXDXDXSXDX",
"!.%X$X%X%X%X<X<X<X&XyXyXyXiX2X$X..P M T P Q Q Q Q #.:.e.r.i.p.j.j._..X}.|. X6X6X5X5X7X7X7X`.:.f.VXJXGXJXSXSXSXHXSXDXSXDXDXDXGXGX",
"%X$X%X%X&X<X<X<X<X<XyXyX1X1X2X+X .E Y #.#.Q T Q :.:.>.t.i.i.f.f.`.`.`.;X;X;X-X5X0X0XqXqXeX X:.f.VXCXHXGXGXDXGXHXSXGXSXDXDXGXDXHX",
"$X$X%X%X<X<X<X&X2X<X1XyX&X1X2X$XZ U P 6.e.+.#.>.:.e.e.i.i.(._.`.{.[.;X;X;X5XwXwXxXqXxXqXxX[.@._.BXGXGXGXHXGXDXHXDXGXGXDXDXDXDXDX",
"%X%X%X<X<X*X<X&X,X$XyXyXyXyX<X$X] K | q.q.$.+.7.>.q.t.a.s.s.z.z.}.}.:X>X>X>X8X8X8XrXeXrXeX:X%.h.BXCXHXSXFXHXDXGXGXSXDXDXGXDXDXDX",
"%X%X%X*X<X1X1X1X<X%XyXyXtX1X2X$XL K ] 7.q.$.7.7.q.q.t.d.h.z.z..X}.}.:X>X>X8X8X8X8XrXeXeXeX:X%.h.BXGXHXGXHXHXGXDXHXGXGXGXHXHXGXDX",
"%X%X<X%X&X<X1X<X<X%XyXyX2XyX2X+XW P T 9.8.8.8.9.r.y.y.h.l..X.X}.}.}.>X>X6X6X8XqXqXrXeXMXMX;X>.k.BXGXHXGXHXHXDXHXHXHXHXHXHXHXHXDX",
"%X#X<X*X<X<X<X<X,X,X<XyXyX2X2X,XQ T | w.0.8.9.w.y.y.h.l.x..X}.}.>X>X>X>X6X6XqX8XeXeXMXMXMX:X-.k.CXGXHXDXHXHXHXHXHXHXHXHXHXHXDXDX",
"$X,X%X%X,X<X<X<X<X,X<XyXyXyX1X$XE P | 9.0.8.9.w.u.u.u.l.x.x..X}.}.}.:X>X6X7X8XrXrX8XeXeXMX:X>.h.BXGXHXGXHXHXHXHXHXHXHXHXGXHXGXHX",
"$X#X%X%X&X<X*X<X<X<XyXyX<XyX2X$X..U | 9.8.7.9.r.u.u.d.l.l.x.}.}.}.:X:X>X>X7X8X8XrX8XeXeXeX:X>.l.VXGXGXGXHXHXFXGXJXHXHXHXHXHXHXHX",
"%X#X#X<X<X&X&X<X<X<XyXyX1XuX2X*X' W ..t.0.>.t.t.a.y.l.l.j..X). X X X>X>X5X7X7X7X8XqXqXxXMX X,.j.VXGXGXDXHXHXHXGXGXHXHXHXHXHXHXHX",
"#X%X*X1X&X%X<X,X<X<XyXyX<X2X2X,X;.R @.5.t.q.e.r.a.y.h.l..X).}.}. X>X X6X>X7XwX7X8XqXqXqXMX[.1.k.VXGXGXDXHXHXHXHXDXHXHXHXHXHXHXHX",
",X,X%X<X<X%X<X<X<X<XyXyX<XyX2X%XX...] 0.0.w.0.r.u.y.p.x.p..X|.|. X X X5X6X9X6X0X0XqXqX8XxX[.%.j.JXGXGXGXLXLXHXHXHXHXHXKXHXKXKXLX",
"!.$X%X%X%X%X<X<X<X<X<XuXyXyX2X,X..U L 0.0.w.w.r.r.y.y.p..X).).|.|. X:X5X5X5X6X9X0X0X0XqXxXOX$.j.JXGXHXGXKXLXHXHXHXKXKXKXKXKXLXLX",
"!.!.,X<X%X%X%X%X<X<XyXyXyXyX2X,XE R ] 0.0.0.w.r.r.y.y.y.p.).).).|. X-X X-X5X5X0X0X0X0X0XxXOX$.(.BXHXHXGXKXKXHXHXKXKXIXKXKXKXKXLX",
"$X%X%X%X%X%X<X<X<X<X<XyX<XyX2X,XE U L 0.8.9.9.9.r.y.y.p.p..X).).|.|. X X X5X6X9X0X0X0X6XxX].$.k.BXHXHXGXKXLXKXKXKXKXIXKXHXKXKXLX",
"!.!.!.<X<X%XyX%X<X,XyXyXyX2X2X,XE ] L 8.7.7.9.6.r.r.p.p.p.).).).|.|. X X-X5X5X5X9X0X9X6X0XOX#._.JXHXHXHXLXLXHXLXKXKXLXKXKXKXKXKX",
"<X%X<XyX%X<X<X<X1X<XyXyX1X2X2X*XE U L 8.7.7.9.r.e.r.y.p.p.p._.).).[.[.-X X-X-X9X5X9X9X6X0X].%._.BXHXLXHXKXKXKXKXLXIXLXLXKXKXLXLX",
"!.%XyX!.%X%X%XyX2X<XyXyXyXyX2X,X..U { 0.7.6.6.6.r.r.e.p.p._._.].].|.[.-X-X-X-X9X9X9X9X0X9XOX%.k.BXLXLXLXKXKXKXIXKXKXKXKXLXKXLXIX",
"%X!.!.%X%X<X<X!.<X<XyXyX<XyX2X*XR ..| 0.7.6.6.#.e.e.e.i.p.p._._.).].].[.-X-X-X-X=X9X9X5X9X'.%._.BXLXHXHXKXKXKXIXHXKXKXKXKXKXKXIX",
"!.%X%X%X!.%X<X!.yX%XyXyXyXuX2X,X..K ] 0.7.+.| 6.#.e.e.r.i.^._.).].].].@X@X-X-X=X9X=X3X5XmX'.&.(.BXKXKXHXLXLXKXIXPXKXKXKXHXKXKXPX",
"!.!.!.%XyX!.<XyX<X%X<XyX2XiX2X,X..K ] d.8.+.| 6.#.e.e.e.i.p.^.p./.].].].[.@X@X-X@X=X9X@X3XN.[ k.BXHXKXHXKXIXLXIXIXKXKXKXKXKXKXPX",
"!.%X<X%X%X%X%X<X<X<X<XyXyXuX2X,X@.K | d.8.+.T #.Q e.e.1.i.^.i.^./.].].].OX@X@X@X=X@X=X@X9X/.%.).BXLXLXKXIXIXKXIXIXKXKXKXKXKXKXPX",
"!.!.<X!.<X!.<X%XyX<X<XyX2XiX2X,X..K } d.8.+.T Q _ Q e.e.e.1.^.^./././.'.OXOXOXOXOX+X*X{.3XV.&._.CXLXLXKXIXKXLXIXPXIXPXKXPXPXPXPX",
"%X!.!.yX!.<X<XyX<X<XyXyXyXuXuX2X .K | d.q.+.T T @.@.e.e.1.1.^.^.V././.'.'.oXoXOXoX+X=X{.*Xm.[ _.BXHXLXHXKXKXKXIXIXIXIXPXPXIXIXIX",
"!.!.%X%X!.%X!.yX<X<XyXyX<XyX2X,X] K | d.8.| T Q Q Q _ e.e.1.i.1.^./.V.'.'.'.'.oXOXoXoXXXoXV.&.f.BXHXHXLXKXIXKXIXIXPXIXIXPXPXIXPX",
"!.%X%X!.%X%X%X<X<X<X<XyXyXuX2X,X .K } d.0.| L T Q Q _ Q 1.e.1.^.M.N.V./.V.'.'.'.oXV.+XXXoXM.&.i.BXHXKXHXIXKXLXIXPXPXPXIXPXPXPXPX",
"!.!.!.%X!.%X%X%X<X%XyXyXyXyX2X,X..] $.s.8.| L P P W Q _ _ 1.1.1.N.N./.V.V.V.'.L.U.oXbXmXoXn.%.k.JXHXLXKXKXIXKXIXKXKXPXPXPXPXPXPX",
"!.!.%X!.!.%X%X!.,X<X<X<X2XyX2X,X..A t.s.q.| Y W W W W _ _ 1._ 1.1.n.N.N.N./.V.'.D.XXCXGX=X<.o.z.SXLXLXKXPXPXKXIXKXPXPXHXPXKXPXPX",
"!.!.!.%X%X!.%X%X,X<X<XyXyXuX3X*X..K >.s.q.] Y Y P W W W _ _ n.M.1.1.1.N.N.V.V.V.D.M.@X4XU.;.O.g.JXHXLXHXPXKXKXPXPXPXPXPXKXHXKXPX",
"!.!.%X!.!.!.<X%X,X<X<XyXyXyX2X1X] K 5.s.q.[ K A ! F F W _ _ _ _ <.n.N.n.m.M.M.V.V.C.M.V.V.n.:.f.GXHXLXHXKXKXKXIXPXPXPXPXKXKXPXPX",
"!.!.!.!.!.%X!.%X,X,X<XyXyXyX2X$X..K q.s.$.[ ! ! F ! F W W _ _ _ _ <.<.1.1.M.m.M.D.B.V.N.L._ o.(.BXHXKXHXKXLXHXLXKXPXPXPXKXHXKXKX",
"~.!.!.!.%X!.%X!.,X,X<X2X<XyXyX%X] K ,.s.q.` v C ! F C F F / / _ ;.<.<.<.n.n.m.m.n.C.V.M.V.( o.(.BXLXKXFXKXKXHXHXPXPXPXPXKXHXKXKX",
"W.!.!.!.!.!.!.<X,X!.<XyXyXyX2X%XR K t.s.$.L M C B C B F F F / / / / =.=.<.n.<.n.n.C.m.m.C.( o.(.BXGXKXHXKXFXFXFXFXFXFXPXKXHXHXKX",
"~.~.!.!.%X!.!.<X,X!.<X<X<XyX2X,XR K 5.s.$.K ! k B k B B F F F / / / ( =.=.=.n.=.n.n.<.n.C./ -.(.VXDXHXFXFXFXFXHXFXPXPXFXFXPXKXKX",
"~.W.!.!.!.!.!.!.,X!.<X<X<X2X2X,XR R 5.s.7.P C k N N N B B D D D ^ / / / ( =.n.=.<.n.n.n.C./ -.f.VXDXFXFXKXFXFXFXFXFXPXPXPXFXKXKX",
"W.W.!.!.!.!.!.!.,X,X,X%X<X<X,X!.U A >.s.&.m c x j N q N S S D D D F / ) ) ( =.=.=.n.( =.C.^ o.g.UXDXFXFXFXKXFXFXFXPXPXFXPXPXFXFX",
"~.!.E.!.E.!.!.$X!.,X%X%X<X<X<X$XI K >.a.[ m V j j q q N N N S S D D ~ ^ / ) / ( / c.=.=.n.J ..g.cXAXAXAXFXFXFXFXFXFXFXFXFXFXPXFX",
"R.E.E.E.E.!.!.!.!.,X$X$X<X<X!.!.I A %.a.} v k j q q q 0 t t y N S S D D ~ ^ ) ) ^ =./ *.=.D ' a.gXNXAXAXFXFXFXFXFXFXFXFXFXFXFXFX",
"R.R.E.E.E.Q.!.!.!.$X!.$X<X<X%XW.Z b %.a.[ b k j q 3 8 q 0 t t y y s S S a ~ ~ ) J ( ^ ^ ( S  .t.cXNXAXAXFXAXAXAXAXFXFXFXFXFXFXFX",
"I.E.E.E.E.!.!.!.W.!.!.%X$X%X$XQ.Z b &.t.[ v x h 3 8 2 q 9 0 r u t y N S S a D D ~ ~ ^ ^ ^ a  .4.gXVXAXAXAXFXAXFXAXAXFXFXAXFXFXFX",
"U.R.R.E.E.E.E.!.!.W.!.!.$X%X$X+XI A o.5.` n j 3 2 > 2 8 9 9 0 0 t t y y a a a S a d a d d e  .g.kXvXAXUXAXAXAXAXAXFXAXFXAXAXFXAX",
"R.R.R.R.~.E.~.Q.W.!.Q.!.!.%X$XW.R c &.5.K n h 3 3 1 > 2 8 8 9 0 0 t t y y u u i i i i i d e ' 4.kXvXjXjXAXAXAXAXAXFXAXAXAXAXAXFX",
"P.P.R.R.R.E.E.W.W.!.Q.!.!.$X$XQ.Z c ..%.{ n h q 2 1 2 2 8 9 0 0 0 t r t y u u y u i p i i e J 4.sXjXjXUXAXAXUXAXAXAXAXAXAXAXFXAX",
"U.P.P.R.I.I.Q.Q.#XQ.#X#X#X$X#XXXC ! ] } m z h 5 1 1 1 < > 8 3 3 9 9 0 0 0 0 r 0 e e e e p w ' 3.kXjXNXjXAXUXUXAXAXAXAXAXAXAXAXDX",
"L.P.I.I.R.I.I.Q.#XI.#XQ.#X#X#XI.A c v ` n z h 5 1 1 1 1 3 > 8 8 8 8 9 0 0 r r 0 6 e e e e w ' ,.fXjXjXjXUXUXUXAXAXZXAXAXZXAXAXAX",
"A.Y.Y.Y.Y.Y.T.T.R.R.T.R.W.W.W.T.F c c v n l h 3 1 1 < 1 3 < 3 8 8 8 8 8 9 9 9 9 6 6 6 e 6 @ H ,.sXgXgXgXgXgXgXUXUXUXUXcXgXNXvXNX",
"A.A.Y.Y.Y.Y.Y.R.Y.R.T.T.W.W.R.T.Z c v K n z h 3 1 1 < > > < > > > 3 2 7 7 7 7 9 6 6 6 6 e @ H ,.sXsXgXgXgXgXgXjXjXgXgXcXcXcXcXvX",
"K.K.J.J.J.J.~.J.J.~.J.~.~.!.~.J.C V A } L x h 3 < < < < * < < : < < < > > > 8 8 7 8 7 7 6 @ H ,.iXkXkXkXvXjXjXjXjXjXjXjXjXZXZXZX",
"G.K.J.H.K.J.J.J.J.J.~.~.~.!.~.J.V x K } m k f < < * < < : < < < < : : : : > # > > 7 7 7 7 @ H :.iXkXkXkXjXjXjXjXjXZXjXjXjXZXZXZX",
"G.H.L.L.L.L.P.P.I.I.I.I.I.oXI.U.V x v ] v h f * O O = o O o o o o o o < o # < : < < > > 7 @ J ,.uXaXfXfXhXkXhXjXjXhXjXjXfXjXjXjX",
"G.H.Z.H.H.L.L.P.P.P.P.I.I.I.I.L.V j v { v h - * O + o O O o o o o o o o o o : : < < > , ,   F -.uXfXfXlXfXfXfXfXhXkXfXjXfXfXjXfX",
"A.B.B.Z.A.S.S.A.L.L.T.U.U.U.S.S.c 4 c { m l - & + + + + + + + + O O O O o o o o < X < # @ . C -.2XsXpXuXpXpXsXfXaXaXaXaXaXaXaXaX",
"D.B.A.A.Z.A.S.L.S.H.U.L.S.U.S.A.V l l b c g f ; & + & & & & f & = O O O o o o o X X $ % # . C o.2XsXpXlXpXsXsXaXaXaXpXpXaXaXaXaX",
"b.G.G.G.H.K.H.H.J.J.J.J.J.J.T.H.c l x b z 5 ; - + & & & f f f & = = = o o o o X X X     # . C -.yXlXlXlXlXlXdXhXhXhXhXhXhXhXhXhX",
"G.b.G.G.G.G.G.G.G.G.G.J.H.J.J.A.4 5 l b x ; - - + & & & f f f f = = O O o o X X   %   % # . B ' yXlXdXlXlXlXdXdXhXhXhXhXhXhXhXhX",
"B.B.Z.Z.Z.H.Z.Z.H.L.S.U.L.S.U.S.V j x 4 ; % % * + + = - 3 - - 1 * * * X X X X X   X     . . V O.iXiXdXiXdXdXdXdXdXdXkXfXkXdXdXdX",
"c.c.c.c.v.v.v.v.v.v.v.b.v.B.B.v.l 5 5 5 % % X $ + + = - = = - - * * * $ X X X # , %     .   x  .#XtXtX#X&X&X*XtXtXtXtXuXtXtXtXtX",
"4 4 4 4 4 4 4 4 4 4 4 4 4 4 h 5 j j B A A A A A Z F Z Z Z Z R Z Z R Z R G W W H ' G *.*.' a A ' ' ' H G ' ' *.' *.*.*.*.*.*.;.*.",
"Z A Z Z Z Z  . . .Z  . . . .O.R R  .' O. .' X.W Q X.Q X.X.-.X.X.o.o.-.-.-.-.;.:.,.' 3.3.*.4.3.,.3.4.4.2.4.4.4.4.4.4.4.4.4.4.4.D."
};
