/* XPM */
static char *_dfa633f86c242d2fe35e3927559127d[] = {
/* columns rows colors chars-per-pixel */
"64 64 256 2 ",
"   c #362416",
".  c #3A2D23",
"X  c #342B22",
"o  c #3D3427",
"O  c #3A3127",
"+  c #432D15",
"@  c #47301E",
"#  c #4B3319",
"$  c #453422",
"%  c #4B3A28",
"&  c #423C34",
"*  c #59422D",
"=  c #454135",
"-  c #5D4932",
";  c #5A4738",
":  c #5E4938",
">  c #57493E",
",  c #60452D",
"<  c #6B4C2F",
"1  c #654C35",
"2  c #654C38",
"3  c #66523A",
"4  c #705538",
"5  c #755A3D",
"6  c #584F48",
"7  c #544A40",
"8  c #5B564A",
"9  c #5D5A52",
"0  c #645242",
"q  c #6D5A4B",
"w  c #705540",
"e  c #745D4A",
"r  c #775E44",
"t  c #635D55",
"y  c #6D5E52",
"u  c #7A634C",
"i  c #78624A",
"p  c #676153",
"a  c #766355",
"s  c #7C6855",
"d  c #76665A",
"f  c #786658",
"g  c #7E6D59",
"h  c #6D6D65",
"j  c #726D65",
"k  c #7B6E64",
"l  c #707066",
"z  c #7E7265",
"x  c #7C756C",
"c  c #83694E",
"v  c #85674C",
"b  c #806751",
"n  c #836C55",
"m  c #8B6E54",
"M  c #826D5A",
"N  c #8B7156",
"B  c #85715C",
"V  c #8D745A",
"C  c #93775C",
"Z  c #9D7E5F",
"A  c #937657",
"S  c #877565",
"D  c #8E7A62",
"F  c #87776A",
"G  c #8E7D6B",
"H  c #957C64",
"J  c #9B7F62",
"K  c #917D6C",
"L  c #8D7E72",
"P  c #847E72",
"I  c #9B8064",
"U  c #9B836B",
"Y  c #8E857C",
"T  c #958376",
"R  c #9A8773",
"E  c #9F8876",
"W  c #93857A",
"Q  c #958A7A",
"!  c #9A8A7A",
"~  c #A48466",
"^  c #A98666",
"/  c #A38669",
"(  c #A2896E",
")  c #AB8B6C",
"_  c #AB8966",
"`  c #B28D6E",
"'  c #A48B74",
"]  c #AD8D72",
"[  c #A28D7C",
"{  c #A88F79",
"}  c #B18E72",
"|  c #AD9375",
" . c #A4917A",
".. c #AC937C",
"X. c #B59274",
"o. c #BA9275",
"O. c #B4947A",
"+. c #BB967A",
"@. c #B6997D",
"#. c #BC9B7C",
"$. c #C39C7D",
"%. c #C89D7A",
"&. c #CDA37F",
"*. c #C5A27C",
"=. c #948C81",
"-. c #9C8D82",
";. c #978F8C",
":. c #9E9184",
">. c #9B938C",
",. c #9C9994",
"<. c #A28F80",
"1. c #A49385",
"2. c #A99684",
"3. c #AC9983",
"4. c #A2968B",
"5. c #AC9B8C",
"6. c #B19782",
"7. c #B49C85",
"8. c #BD9D83",
"9. c #B29E8C",
"0. c #BA9F89",
"q. c #AA9D94",
"w. c #B29F91",
"e. c #BDA185",
"r. c #B4A08C",
"t. c #BCA28B",
"y. c #ADA59C",
"u. c #AEA296",
"i. c #B5A494",
"p. c #BDA794",
"a. c #BCA994",
"s. c #BCAB9B",
"d. c #B6A79A",
"f. c #BFADA2",
"g. c #B3ACA4",
"h. c #BFB2A4",
"j. c #C39E82",
"k. c #C89F83",
"l. c #C5A285",
"z. c #CBA484",
"x. c #CDA986",
"c. c #C2A58B",
"v. c #CBA689",
"b. c #C5AA8E",
"n. c #CDAA8C",
"m. c #D3AC8B",
"M. c #D9AE89",
"N. c #D3A885",
"B. c #D5B28E",
"V. c #DAB18D",
"C. c #C3A791",
"Z. c #C3AA93",
"A. c #CBAD94",
"S. c #C4AC98",
"D. c #D2AE91",
"F. c #D9AF96",
"G. c #CCB195",
"H. c #C6B19D",
"J. c #CCB29B",
"K. c #C9B59B",
"L. c #D4B294",
"P. c #DAB595",
"I. c #DEBA97",
"U. c #D4B69C",
"Y. c #DAB79A",
"T. c #D7B99D",
"R. c #DBBA9D",
"E. c #D6B896",
"W. c #E0B48F",
"Q. c #E5BC97",
"!. c #E2BE9C",
"~. c #E8BE98",
"^. c #C0AEA0",
"/. c #C4B3A4",
"(. c #CAB5A3",
"). c #CDB9A5",
"_. c #C5B5A9",
"`. c #CEBCAC",
"'. c #C7B9AE",
"]. c #D5BCA4",
"[. c #DCBDA3",
"{. c #D2BCAA",
"}. c #CBBEB2",
"|. c #C6BFBA",
" X c #D0BFB5",
".X c #E3BCA2",
"XX c #E7C19C",
"oX c #E9C39D",
"OX c #DDC1A4",
"+X c #D6C0AD",
"@X c #DDC3AC",
"#X c #D6C1A6",
"$X c #CFC3B8",
"%X c #D3C3B4",
"&X c #D9C5B2",
"*X c #D6CABE",
"=X c #DBCCBC",
"-X c #E4C2A2",
";X c #EAC5A2",
":X c #ECC8A5",
">X c #E4C5AA",
",X c #E7C8AC",
"<X c #EECCAB",
"1X c #EAC5AB",
"2X c #F2CBA6",
"3X c #F3CEAB",
"4X c #F6D1AE",
"5X c #FAD3AE",
"6X c #E0C6B2",
"7X c #E4CAB4",
"8X c #E9CFB9",
"9X c #E8CCB5",
"0X c #EDD1B5",
"qX c #EAD2BB",
"wX c #F5D3B3",
"eX c #FBD7B4",
"rX c #FEDAB5",
"tX c #F6D6BB",
"yX c #F8D7B8",
"uX c #F6D9BE",
"iX c #FEDCBB",
"pX c #FFE0BE",
"aX c #D9CEC3",
"sX c #D3CBC3",
"dX c #D8D7D2",
"fX c #E3D4C8",
"gX c #F4DBC1",
"hX c #FCDEC2",
"jX c #E4DAD5",
"kX c #EBDDD2",
"lX c #E8DDD9",
"zX c #FFE3C5",
"xX c #EDE0D5",
"cX c #E8E2D7",
"vX c #F2E4D6",
"bX c #F3E6DD",
"nX c #F8E3D0",
"mX c #EEEDE8",
"MX c #F5ECE4",
"NX c #F8EDE7",
"BX c #F3EDE9",
"VX c #F8EFE8",
"CX c #FDF2E7",
"ZX c #F4F3ED",
"AX c #FEF4EB",
"SX c #FEF9EF",
"DX c #F1EFF0",
"FX c #EFF3F6",
"GX c #F5F6F4",
"HX c #FBF6F3",
"JX c #F7FAF4",
"KX c #FEFBF4",
"LX c #F3F5F9",
"PX c #F9F7F9",
"IX c #F6F9FB",
"UX c #FFFFFE",
/* pixels */
"UXUXUXUXUXUXUXUXUXUXUXUXUXUXUXUXUXUXIXIXUXUXUXUXIXUXUXKXKXUXKXKXUXUXUXUXUXUXUXUXKXUXUXUXUXKXUXUXUXUXUXUXUXUXUXUXUXUXUXUXUXUXUXUX",
"UXUXUXUXUXUXUXUXUXUXUXUXUXUXUXUXUXUXUXUXUXUXUXUXUXUXUXUXUXUXUXUXUXUXUXUXUXUXUXUXUXUXUXKXUXUXKXUXUXUXUXUXUXUXUXUXUXUXUXUXUXUXUXUX",
"UXUXUXUXUXUXUXUXUXUXUXUXUXUXUXUXUXUXUXUXUXUXUXUXUXUXUXKXUXIXUXUXUXUXIXIXUXUXUXUXUXUXUXKXKXKXUXUXUXUXUXUXUXUXUXUXUXUXUXUXUXUXUXUX",
"UXUXUXUXUXUXUXUXUXUXUXUXUXUXUXUXUXUXUXUXUXUXUXUXUXUXUXUXUXUXUXUXUXUXUXUXIXUXUXUXUXUXUXUXUXUXUXKXUXUXUXUXUXUXUXUXUXUXUXUXUXUXUXUX",
"UXUXUXUXUXUXUXUXUXUXUXUXUXUXUXUXUXUXKXUXUXUXUXUXUXUXUXUXUXIXUXUXUXUXUXIXUXIXUXUXUXUXUXUXUXUXUXKXUXUXUXUXUXUXUXUXUXUXUXUXUXUXUXUX",
"UXUXUXUXUXUXUXUXUXUXUXUXUXUXUXUXUXUXUXUXUXUXUXUXIXUXUXIXUXUXIXUXIXIXIXUXIXUXIXUXUXUXUXUXKXKXUXUXUXUXUXUXUXUXUXUXUXUXUXUXUXUXUXUX",
"UXUXUXUXUXUXUXUXUXUXUXUXUXUXUXUXKXUXUXUXUXUXUXUXUXIXUXUXIXUXIXIXIXIXIXIXUXIXUXUXUXUXUXUXUXUXKXUXUXUXUXUXUXUXUXUXUXUXUXUXUXUXUXUX",
"UXUXUXUXUXUXUXUXUXUXUXUXUXUXUXUXUXUXUXIXUXUXUXUXUXUXUXIXUXIXUXUXUXUXUXIXUXUXIXUXUXUXUXUXUXKXUXUXUXUXUXUXUXUXUXUXUXUXUXUXUXUXUXUX",
"UXUXUXUXUXUXUXUXUXUXUXUXUXUXUXUXUXKXUXUXUXUXUXUXIXUXUXUXUXIXIXIXIXIXIXUXUXUXUXGXUXJXUXUXUXJXUXUXUXUXUXUXUXUXUXUXUXUXUXUXUXUXUXUX",
"UXUXUXUXUXUXUXUXUXUXUXUXUXUXUXUXUXUXKXKXUXJXUXKXUXKXIXUXKXUXUXUXUXUXUXKXGXKXUXUXKXUXUXUXUXIXIXUXUXUXUXUXUXUXUXUXUXUXUXUXUXUXUXUX",
"UXUXUXUXUXUXUXUXUXUXUXUXUXUXUXUXUXUXKXUXUXUXKXUXUXKXKXKXUXKXKXKXKXKXKXKXKXSXKXUXUXKXKXUXUXUXUXUXUXUXUXUXUXUXUXUXUXUXUXUXUXUXUXUX",
"UXUXUXUXUXUXUXUXUXUXUXUXUXUXUXUXJXKXUXKXKXUXKXSXKXKXKXSXKXKXKXAXSXKXSXKXKXKXSXBXKXJXJXUXUXUXUXIXUXUXUXUXUXUXUXUXUXUXUXUXUXUXUXUX",
"UXUXUXUXUXUXUXUXUXUXUXUXUXUXUXUXIXUXUXUXJXSXSXKXKXSXKXSXSXvX$Xs.2.w.H.%XkXCXKXKXKXUXKXIXUXUXIXUXUXUXUXUXUXUXUXUXUXUXUXUXUXUXUXUX",
"UXUXUXUXUXUXUXUXUXUXUXUXUXUXUXUXUXUXUXKXUXUXKXKXKXCX=X/.s.s./.(.H.).)._./.%XxXSXKXKXKXUXIXUXUXIXUXUXUXUXUXUXUXUXUXUXUXUXUXUXUXUX",
"UXUXUXUXUXUXUXUXUXUXUXUXUXUXUXUXUXUXUXKXUXKXKXVXh.h._.`.%X&X+X].].OX].H.a.s.}.aXMXKXUXUXIXUXIXUXUXUXUXUXUXUXUXUXUXUXUXUXUXUXUXUX",
"UXUXUXUXUXUXUXUXUXUXUXUXUXUXUXUXUXUXKXUXKXMXaXh.&X&X&X&X7X8XqX8X@XOX[.OX#X].H.s.fXMXKXUXUXUXUXIXUXUXUXUXUXUXUXUXUXUXUXUXUXUXUXUX",
"UXUXUXUXUXUXUXUXUXUXUXUXUXUXUXUXKXUXKXCXvX/.7X7X7X0XtXhXhXgXgXuX<X2X;X-X!..X[.J.p.=XAXUXGXUXUXLXUXUXUXUXUXUXUXUXUXUXUXUXUXUXUXUX",
"UXUXUXUXUXUXUXUXUXUXUXUXUXUXUXUXHXUXNXjXfX{.9X6XtXyXhXzXzXzXzXzXeXeX2XoXoX-X!.R.G.S.=XKXUXIXUXIXUXUXUXUXUXUXUXUXUXUXUXUXUXUXUXUX",
"UXUXUXUXUXUXUXUXUXUXUXUXUXUXUXUXKXKXfX X%X6X6X1XiXiXzXzXzXzXzXzXiXiX5X2X;X;X-X.X].7.i.KXUXGXUXUXUXUXUXUXUXUXUXUXUXUXUXUXUXUXUXUX",
"UXUXUXUXUXUXUXUXUXUXUXUXUXUXUXUXUXAX$X_.(.6XU.-X4XeXiXiXzXiXpXiXiXrXeX3X:X;X-X[.U.S.2.sXKXKXUXLXUXUXUXUXUXUXUXUXUXUXUXUXUXUXUXUX",
"UXUXUXUXUXUXUXUXUXUXUXUXUXUXUXKXKXkX_.(.J.G.j.P.XXoX5XrXrXiXiXiXeXeXeX3X:X;X!.Y.A.(.9.q.KXUXUXLXUXUXUXUXUXUXUXUXUXUXUXUXUXUXUXUX",
"UXUXUXUXUXUXUXUXUXUXUXUXUXUXUXUXHX=X^.(.C.8.X.v.&.M.Q.2X5XrXiXiXeXiXeX3X-X!.Y.L.0.Z.w.:.VXKXPXUXUXUXUXUXUXUXUXUXUXUXUXUXUXUXUXUX",
"UXUXUXUXUXUXUXUXUXUXUXUXUXUXUXUXSX`.(.Z.0.#.$.%.%.&.M.Q.2X4XeXpXiXiXeX;XI.B.A.v.#.7.i.1.|.KXHXUXUXUXUXUXUXUXUXUXUXUXUXUXUXUXUXUX",
"UXUXUXUXUXUXUXUXUXUXUXUXUXUXUXKXSX/.).0.8.j.x.%.N.M.W.Q.oX4XrXpXiXiX4XR.m.z.l.j.8.7.p.1.W KXUXUXUXUXUXUXUXUXUXUXUXUXUXUXUXUXUXUX",
"UXUXUXUXUXUXUXUXUXUXUXUXUXUXUXUXCX). XJ.Y.k.j.m.M.~.M.V.P.eXpXpXpXiX<X>Xz.] *.e.O.' 0.1.W KXHXUXUXUXUXUXUXUXUXUXUXUXUXUXUXUXUXUX",
"UXUXUXUXUXUXUXUXUXUXUXUXUXUXUXUXCX`.{.6X9X.Xl.z.V.z.&.;X4XwXyXzXzXzXwX-X$._ #.#.j.7.6.[ L xXKXPXUXUXUXUXUXUXUXUXUXUXUXUXUXUXUXUX",
"UXUXUXUXUXUXUXUXUXUXUXUXUXUXUXKXSX^.(.[.gXuX-XR.!.!.-X:XeXpXzXzXhXzX0XR.X.^ #.*.+.c.' E 1. XHXKXUXUXUXUXUXUXUXUXUXUXUXUXUXUXUXUX",
"UXUXUXUXUXUXUXUXUXUXUXUXUXUXUXUXHXF a q { 7.Y.1XY.L.n.) U | e.t.].OXL.c.` ) x.v.+.O...2.S.f.bXKXUXUXUXUXUXUXUXUXUXUXUXUXUXUXUXUX",
"UXUXUXUXUXUXUXUXUXUXUXUXUXUXUXUXKXd     @ w H l.R.) m 4 , , - g V I / O.O.#.E.L.j.] S.Z.`.w.^.AXUXUXUXUXUXUXUXUXUXUXUXUXUXUXUXUX",
"UXUXUXUXUXUXUXUXUXUXUXUXUXUXUXUXKX;.> f % u 1 b O.b , # + 3 % - < r C e.B.L.XXP.n.O..XH.`.w.1.AXKXUXUXUXUXUXUXUXUXUXUXUXUXUXUXUX",
"UXUXUXUXUXUXUXUXUXUXUXUXUXUXUXUXKXy.L 4.f E e 1 t.7.I s r i.G g D I O.R.-XL.R.Y.k.8.R...6.1.-.SXUXUXUXUXUXUXUXUXUXUXUXUXUXUXUXUX",
"UXUXUXUXUXUXUXUXUXUXUXUXUXUXUXUXUXy.q.L K 6.7.m >X[.C.Z.U K.I  .U.G.U.0X-Xz.D.L.+.8.c.M B K R AXUXUXUXUXUXUXUXUXUXUXUXUXUXUXUXUX",
"UXUXUXUXUXUXUXUXUXUXUXUXUXUXUXUXKX5.i.2. .G.| ) 5X2XoX2XK._ *.*.R.>X1XR.D.D.v.v.+.O.( b 0.i.i.SXKXUXUXUXUXUXUXUXUXUXUXUXUXUXUXUX",
"UXUXUXUXUXUXUXUXUXUXUXUXUXUXUXUXCXi.w.9.@.e._ x.pX4XoX5XXX*.E.E..X.X.XF.n.v.C.j.] C.U 2.`.p.vXSXUXUXUXUXUXUXUXUXUXUXUXUXUXUXUXUX",
"UXUXUXUXUXUXUXUXUXUXUXUXUXUXUXKXSX$X:.r.0.@._ XXrXoXoXrX5XB.B.*.F.F.m.k.k.k.j.O.) 0.6.{.=Xp.KXKXUXUXUXUXUXUXUXUXUXUXUXUXUXUXUXUX",
"UXUXUXUXUXUXUXUXUXUXUXUXUXUXUXUXKXkXT  .t.| / -XpX:XI.XXQ.E.B.b.v.k.$.o.o.o.O.} ..t.7X`.`.*XCXKXUXUXUXUXUXUXUXUXUXUXUXUXUXUXUXUX",
"UXUXUXUXUXUXUXUXUXUXUXUXUXUXUXUXKXAX1.U  .| ) <XrX:XoXE.E.:XI.*.k.%.o.` } } } 6...J.nXd.%XKXSXUXUXUXUXUXUXUXUXUXUXUXUXUXUXUXUXUX",
"UXUXUXUXUXUXUXUXUXUXUXUXUXUXUXUXSXKX}.Q R ( e.yX5XoXXXB.B.:X-XB.m.N.o.o.} } o.6...1.S._.MXKXUXKXUXUXUXUXUXUXUXUXUXUXUXUXUXUXUXUX",
"UXUXUXUXUXUXUXUXUXUXUXUXUXUXUXUXKXSXxX4. .D e.<X5X&.#._ | E.:XeX.XN.k.j.k.j.8.8.' e ! cXKXZXUXKXUXUXUXUXUXUXUXUXUXUXUXUXUXUXUXUX",
"UXUXUXUXUXUXUXUXUXUXUXUXUXUXUXUXUXMXbX5. .g ( e._ N _ #.B.-X#XwX.Xm.8.k.v.v.k.t.H q '.KXKXUXUXLXUXUXUXUXUXUXUXUXUXUXUXUXUXUXUXUX",
"UXUXUXUXUXUXUXUXUXUXUXUXUXUXUXUXUXSXMXh.G B i < < v Z | &.#X#XwXF.v.k.N.n.A.C.0.K q vXHXUXUXIXUXUXUXUXUXUXUXUXUXUXUXUXUXUXUXUXUX",
"UXUXUXUXUXUXUXUXUXUXUXUXUXUXUXUXUXKXSXu.F M u i v J _ J J / | G.F.v.k.D.Y.R.C.' M y NXPXUXUXIXIXUXUXUXUXUXUXUXUXUXUXUXUXUXUXUXUX",
"UXUXUXUXUXUXUXUXUXUXUXUXUXUXUXUXGXKXUX4.S S u u A @.b.b.*.( V N ] l.F.U.Y.J.6.K y d CXUXUXUXIXIXUXUXUXUXUXUXUXUXUXUXUXUXUXUXUXUX",
"UXUXUXUXUXUXUXUXUXUXUXUXUXUXUXUXKXUXKXy.k ! M r i c 5 5 N (  .3.C c.[.[.J.0.U M y M NXKXPXUXIXIXUXUXUXUXUXUXUXUXUXUXUXUXUXUXUXUX",
"UXUXUXUXUXUXUXUXUXUXUXUXUXUXUXUXUXJXKXsXk 5.R B J J ( e.,XgXqX#X..U.#XU.S...s : y k lXPXPXUXIXUXUXUXUXUXUXUXUXUXUXUXUXUXUXUXUXUX",
"UXUXUXUXUXUXUXUXUXUXUXUXUXUXUXUXUXKXUXMXW 1.3.3.r.e.K.#X#XK.a. .7.].K...U u : ; a L lXUXUXUXIXUXUXUXUXUXUXUXUXUXUXUXUXUXUXUXUXUX",
"UXUXUXUXUXUXUXUXUXUXUXUXUXUXUXUXUXUXUXKX$XQ 5.a.| r.#X=X#Xa.3.D D 3.' s : % * a L d.HXPXPXUXIXUXUXUXUXUXUXUXUXUXUXUXUXUXUXUXUXUX",
"UXUXUXUXUXUXUXUXUXUXUXUXUXUXUXUXIXUXUXSXUXW ! r.g D r.#XK.a. .i a s 3 $ $ % 0 Y y.aXPXUXDXUXUXUXUXUXUXUXUXUXUXUXUXUXUXUXUXUXUXUX",
"UXUXUXUXUXUXUXUXUXUXUXUXUXUXUXUXUXPXUXHXPXsXx F t t :.y.y.Q z = o . . $ > j >.g.KXUXUXUXUXIXIXUXUXUXUXUXUXUXUXUXUXUXUXUXUXUXUXUX",
"UXUXUXUXUXUXUXUXUXUXUXUXUXUXUXUXPXUXUXUXPXBX;.& t t Y =.P 9 8 o X & 6 j >.|.MXUXUXKXUXUXUXUXUXUXUXUXUXUXUXUXUXUXUXUXUXUXUXUXUXUX",
"UXUXUXUXUXUXUXUXUXUXUXUXUXUXUXUXPXPXUXUXPXUXjXh 9 9 x l 8 & = O t =.|.NXKXUXUXKXUXKXUXIXUXIXUXUXUXUXUXUXUXUXUXUXUXUXUXUXUXUXUXUX",
"UXUXUXUXUXUXUXUXUXUXUXUXUXUXUXUXUXUXPXUXPXUXKXdX,.h 9 l y.cXKXAXHXHXUXSXZXSXKXUXUXUXUXUXUXUXUXIXUXUXUXUXUXUXUXUXUXUXUXUXUXUXUXUX",
"UXUXUXUXUXUXUXUXUXUXUXUXUXUXUXUXUXUXLXUXUXFXUXUXGXKXKXUXSXZXJXSXUXUXKXUXKXUXJXZXKXKXUXUXUXUXIXUXUXUXUXUXUXUXUXUXUXUXUXUXUXUXUXUX",
"UXUXUXUXUXUXUXUXUXUXUXUXUXUXUXUXLXUXUXLXUXUXKXIXUXUXmXJXJXIXKXUXKXHXHXSXUXKXKXUXUXUXUXUXIXUXUXUXUXUXUXUXUXUXUXUXUXUXUXUXUXUXUXUX",
"UXUXUXUXUXUXUXUXUXUXUXUXUXUXUXUXUXIXUXFXUXUXIXUXJXUXUXIXKXUXZXJXUXKXUXKXUXUXUXJXUXUXUXUXUXUXKXUXUXUXUXUXUXUXUXUXUXUXUXUXUXUXUXUX",
"UXUXUXUXUXUXUXUXUXUXUXUXUXUXUXUXUXLXIXUXIXUXLXIXUXUXFXUXIXUXJXUXUXUXUXUXKXKXUXKXUXUXKXUXUXIXUXUXUXUXUXUXUXUXUXUXUXUXUXUXUXUXUXUX",
"UXUXUXUXUXUXUXUXUXUXUXUXUXUXUXUXUXUXIXIXUXUXUXUXIXUXIXUXUXIXIXUXUXUXUXUXUXUXUXUXUXUXUXUXIXUXUXIXUXUXUXUXUXUXUXUXUXUXUXUXUXUXUXUX",
"UXUXUXUXUXUXUXUXUXUXUXUXUXUXUXUXUXUXUXUXIXUXIXUXUXUXUXUXUXUXUXUXUXUXUXUXUXUXUXUXKXUXUXUXKXUXUXUXUXUXUXUXUXUXUXUXUXUXUXUXUXUXUXUX",
"UXUXUXUXUXUXUXUXUXUXUXUXUXUXUXUXUXIXUXUXUXUXUXUXUXIXUXIXIXUXUXUXUXUXUXUXUXUXUXUXUXUXUXUXUXUXUXUXUXUXUXUXUXUXUXUXUXUXUXUXUXUXUXUX",
"UXUXUXUXUXUXUXUXUXUXUXUXUXUXUXUXUXUXIXUXUXIXIXUXUXUXUXIXUXUXIXUXUXUXUXUXUXUXUXUXUXUXUXIXUXKXKXUXUXUXUXUXUXUXUXUXUXUXUXUXUXUXUXUX",
"UXUXUXUXUXUXUXUXUXUXUXUXUXUXUXUXUXUXUXKXUXUXUXUXUXUXUXIXUXUXUXUXUXIXIXUXUXUXUXUXUXUXUXUXUXKXKXUXUXUXUXUXUXUXUXUXUXUXUXUXUXUXUXUX",
"UXUXUXUXUXUXUXUXUXUXUXUXUXUXUXUXUXUXUXUXUXUXUXUXUXUXUXUXUXUXUXUXUXUXUXUXUXIXUXUXUXUXUXUXUXUXUXUXUXUXUXUXUXUXUXUXUXUXUXUXUXUXUXUX",
"UXUXUXUXUXUXUXUXUXUXUXUXUXUXUXUXKXUXUXUXUXKXUXKXUXUXUXUXUXUXUXUXIXUXUXIXUXUXUXIXUXUXIXUXKXUXUXKXUXUXUXUXUXUXUXUXUXUXUXUXUXUXUXUX",
"UXUXUXUXUXUXUXUXUXUXUXUXUXUXUXUXUXUXKXKXUXUXUXKXUXUXUXUXUXUXUXUXIXUXUXUXIXIXUXUXUXUXUXUXKXUXUXUXUXUXUXUXUXUXUXUXUXUXUXUXUXUXUXUX"
};
