/* XPM */
static char *_54be82102f64a85a402cefad431d1c3[] = {
/* columns rows colors chars-per-pixel */
"64 64 256 2 ",
"   c #010301",
".  c #080903",
"X  c #071604",
"o  c #131709",
"O  c #171814",
"+  c #120D06",
"@  c #182607",
"#  c #053803",
"$  c #143012",
"%  c #232C19",
"&  c #273618",
"*  c #2D2910",
"=  c #1C2922",
"-  c #2A3828",
";  c #393726",
":  c #31332E",
">  c #31140F",
",  c #4A342D",
"<  c #6F2C2C",
"1  c #66181C",
"2  c #054703",
"3  c #085704",
"4  c #1B5805",
"5  c #17500D",
"6  c #255B05",
"7  c #275412",
"8  c #076804",
"9  c #176604",
"0  c #12710D",
"q  c #2B6501",
"w  c #296806",
"e  c #336B03",
"r  c #3C6C04",
"t  c #366607",
"y  c #3A7204",
"u  c #296816",
"i  c #2E7211",
"p  c #1B4B26",
"a  c #364837",
"s  c #3A5636",
"d  c #304E2A",
"f  c #356D2D",
"g  c #486F0B",
"h  c #57493B",
"j  c #475639",
"k  c #54583B",
"l  c #454B2E",
"z  c #4F752D",
"x  c #61463D",
"c  c #3D5D49",
"v  c #574B43",
"b  c #465746",
"n  c #585846",
"m  c #5B5B52",
"M  c #46524E",
"N  c #665B49",
"B  c #635E53",
"V  c #6A5E55",
"C  c #70534C",
"Z  c #576856",
"A  c #516E4E",
"S  c #69644C",
"D  c #76644D",
"F  c #696457",
"G  c #766A57",
"H  c #65765B",
"J  c #7B7558",
"K  c #79704F",
"L  c #536F65",
"P  c #696A65",
"I  c #736D68",
"U  c #6A7569",
"Y  c #74746C",
"T  c #7A7B6D",
"R  c #787766",
"E  c #6E7674",
"W  c #7A7B73",
"Q  c #7C7E7A",
"!  c #747975",
"~  c #745E61",
"^  c #902130",
"/  c #8F5050",
"(  c #B14E4F",
")  c #826C5A",
"_  c #83755B",
"`  c #847C5B",
"'  c #847757",
"]  c #887B65",
"[  c #867B74",
"{  c #927467",
"}  c #AC7474",
"|  c #A76155",
" . c #DA5F69",
".. c #15850F",
"X. c #2B8915",
"o. c #388931",
"O. c #568A25",
"+. c #3F9B46",
"@. c #4C8956",
"#. c #689749",
"$. c #688667",
"%. c #7C8374",
"&. c #7D827C",
"*. c #768775",
"=. c #709072",
"-. c #6DAE76",
";. c #619B5D",
":. c #77C476",
">. c #88815C",
",. c #8B8368",
"<. c #97866B",
"1. c #82847C",
"2. c #838A7C",
"3. c #888774",
"4. c #9C8C73",
"5. c #958A73",
"6. c #9B927A",
"7. c #88927B",
"8. c #A28E75",
"9. c #A49276",
"0. c #A5947A",
"q. c #A9957B",
"w. c #AA9A7E",
"e. c #A3997D",
"r. c #B0837D",
"t. c #90AF74",
"y. c #8AB657",
"u. c #C7807E",
"i. c #767C83",
"p. c #BB7C85",
"a. c #CD7D86",
"s. c #7D8683",
"d. c #7EA183",
"f. c #828682",
"g. c #858A84",
"h. c #8A8C84",
"j. c #8B8E8A",
"k. c #858A8B",
"l. c #8C928C",
"z. c #8D9B8B",
"x. c #889584",
"c. c #93948D",
"v. c #95998B",
"b. c #8D9692",
"n. c #939592",
"m. c #959A93",
"M. c #9A9B94",
"N. c #969A9A",
"B. c #9B9D9B",
"V. c #979696",
"C. c #998785",
"Z. c #AC9D83",
"A. c #A59C84",
"S. c #B19E86",
"D. c #B19F89",
"F. c #A49C98",
"G. c #B28988",
"H. c #95A293",
"J. c #9BA39A",
"K. c #9EAA9C",
"L. c #97A697",
"P. c #92AC92",
"I. c #AEA086",
"U. c #AEA68A",
"Y. c #B5A48C",
"T. c #B2A589",
"R. c #A2A39C",
"E. c #A2AC9E",
"W. c #B4AC96",
"Q. c #9A9EA2",
"!. c #9DA2A4",
"~. c #9FA8A5",
"^. c #99BAA7",
"/. c #A2A5A3",
"(. c #A4ABA4",
"). c #ABABA5",
"_. c #A2A6AA",
"`. c #A5AAAC",
"'. c #ABADAA",
"]. c #A8A7A3",
"[. c #B2ACA9",
"{. c #ACB2AD",
"}. c #A9B5A6",
"|. c #B4B2AD",
" X c #B9B5AE",
".X c #B6B9AD",
"XX c #AAADB2",
"oX c #A6ACB0",
"OX c #ACB2B4",
"+X c #ADB4BA",
"@X c #ADBAB4",
"#X c #B4B5B3",
"$X c #BAB6B1",
"%X c #B4BBB4",
"&X c #BCBAB3",
"*X c #B4BABB",
"=X c #BBBDBB",
"-X c #B3B7BA",
";X c #C49591",
":X c #EF9091",
">X c #D1A699",
",X c #C1BCB6",
"<X c #C4BCB9",
"1X c #CCADAA",
"2X c #F3B0AC",
"3X c #FF9DAF",
"4X c #98C391",
"5X c #BCC3BC",
"6X c #B8C6B9",
"7X c #B4C9B4",
"8X c #AED899",
"9X c #C4C2BD",
"0X c #C7C7BD",
"qX c #D2CEAF",
"wX c #BBBEC3",
"eX c #B6BCC2",
"rX c #CCBAC6",
"tX c #BCC3C3",
"yX c #BDC7C6",
"uX c #BCDCC5",
"iX c #C4C5C3",
"pX c #C4CBC4",
"aX c #CACAC5",
"sX c #C4C6CB",
"dX c #C5CBCC",
"fX c #CBCDCB",
"gX c #CAC5C2",
"hX c #D6CCC7",
"jX c #CDD2CD",
"kX c #C7D4C7",
"lX c #D3D3CD",
"zX c #D7D7CD",
"xX c #CACCD2",
"cX c #CCD3D3",
"vX c #CCD7D4",
"bX c #D2D5D4",
"nX c #D5D9D5",
"mX c #D4DBDC",
"MX c #DADDDC",
"NX c #D7D8D6",
"BX c #E5DADA",
"VX c #F1CECB",
"CX c #D8E4DB",
"ZX c #CCE7CE",
"AX c #E7E6DD",
"SX c #F3F3DE",
"DX c #D6DEE1",
"FX c #DADEE1",
"GX c #D7D5E0",
"HX c #DDE1E3",
"JX c #D7E9E4",
"KX c #DBF7E5",
"LX c #E1E3E3",
"PX c #E6EAE5",
"IX c #F4F1EA",
"UX c #E4DDE8",
/* pixels */
"mXmXFXFXFXFXFXFXFXFXDXUXDXHXDXUXHXHXHXHXHXHXHXDXUXNXM.1.s.l.&.b.7X@XxXcXdXdXsXsXwXeXeX+X+XoXoX_._._.oXoXXXXX_.XX+X+XeXeXwXsXsXxX",
"mXmXGXFXFXFXFXFXFXFXDXHXHXHXHXUXHXHXHXUXHXHXHXDXUXxXb ; :   o a & E xXbXxXdXsXsXsXwXeX+X+XoX_._.Q._._._.XXXXXX_.+X+XeXwXsXsXxXxX",
"FXDXDXDXFXHXHXFXHXHXHXHXHXHXHXHXPXHXHXHXJXUXHXHXJXDXz.p p 3 2 A L   !.GXxXxXsXsXwXwX+X+XoXoX_._.Q._._._._._._.XX+X+X+XwXsXsXxXxX",
"FXFXHXFXFXHXHXHXUXHXHXHXHXHXUXHXHXHXHXHXUXJXHXHXJXcX*.# f 4 2 L U X !.sXcXxXeXsXwXeX+XXXoX_.Q.Q.Q._._._._._._.XX+X+X+XwXyXxXxXGX",
"FXFXFXHXFXHXHXFXHXHXHXHXHXHXHXHXHXHXJXUXHXHXHXHXJXUX$.# u 8 8 -.d.. Q.xXxXtXyXtXwXeXOXXX_._.!.Q.Q.Q._._._._.XX[.OXOXeXwXsXxXxXcX",
"FXFXHXFXHXFXHXHXHXHXHXHXHXHXHXUXHXHXHXHXHXHXHXHXGXUXP.# 9 0 3 -.d.X eXGXsXxXtXtXeX*XOXoX_._.!.Q.Q._._._._.oXXXXXOX+XeXwXsXsXxXcX",
"DXFXFXHXHXHXHXHXHXHXHXHXHXHXHXHXHXLXHXHXHXLXCXHXUXUX7.3 X.X.8 -.-.p P.xXbXtXyXtXeX-XOXoX_._.~.J.Q.Q._._._.oXXXXX+X-XeXtXyXxXcXGX",
"HXDXFXHXHXHXHXHXHXHXHXPXHXHXHXUXLXHXLXLXLXLXHXLXUXUX=.3 f X.8 -.-.$ L.xXxXyXeX5X*X-XXX`.`._.!.!._._._._._.oXXX+X-X-XeXtXxXxXxXcX",
"DXFXHXHXHXHXFXHXDXHXHXHXHXJXUXHXHXLXHXLXHXHXHXLXJXyX@.8 X.X.8 @.-.p $.uXjXtXwX=X*X-XOX'.`.~.(.~.]._.].`.`.'.#X#X=X=X=XiXsXfXbXbX",
"DXDXJXHXFXHXHXHXHXHXHXHXHXHXUXHXLXJXLXHXPXHXLXHXPXuXf 0 X.....+.-.0 L 7XxXiXsXwX=X-XOX{.`.~.~.~._.].`.`.[.XX#X$X-X=XwXsXsXfXxXbX",
"DXDXDXDXHXFXHXHXHXHXHXUXHXHXHXHXLXLXLXCXHXLXLXHXJX^.3 ..X.X...+.:.u f ^.dXdXsX-X*X-X{.'.).(.].E.].].].'.'.[.#X-X=X=XrXiXhXxXbXbX",
"DXDXDXFXFXHXHXHXDXHXHXDXFXHXHXHXCXLXLXLXHXHXCXHXCXP.0 X...X...+.-.@.p E.fXfXwXiX*X@X{.{.).`.).}.'.[.'.[.XX#X$X&X<XwXwXiXsXxXxXbX",
"DXDXDXDXHXDXHXFXFXFXMXFXDXMXMXHXHXHXLXLXLXLXLXJXZX$.2 6 5 7 4 p @.p & E.kX6XiX&X&X&X|.{.).'.).'.'.'.'.[.{.#X$X=X*XrXiXiXfXfXxXbX",
"GXmXmXDXGXFXDXDXFXDXDXFXDXFXMXMXCXLXLXLXLXCXLXLXpXs # 3 5 5 4 z ^.^.=.7.pXdXdX&X=X*X#X[.{.).).'.[.'.'.'.{.$X$X=X=X9X9XsXfXfXbXbX",
"mXDXmXmXDXFXDXDXMXMXFXMXNXMXMXMXLXLXLXLXCXHXLXLXP.& 7 f c A b m.KXuX=.*.%XdX=X9X=X&X#X{.).{.'.'.{.[.[.{.#X$X&X=X9X9XgXgXfXhXxXbX",
"vXvXvXmXmXmXFXGXmXmXMXMXNXMXMXMXCXLXLXHXLXLXLXLXz.d 6 @ p A $.).JXKXKXCX/.fXiX5X&X$X{.|.[.|.|.|.{.|.{.|.$X#X<X<X9X9XsXhXfXxXxXbX",
"cXvXvXvXvXvXDXDXvXmXmXMXnXnXNXNXBXJXPXCXLXBXPXhX[ h x { C.1XVXVXIXIXSX.X1.gX6X7X=X$X#X X.X[.[.|.|.[.|.[. X&X,X9X9X0XgXaXfXjXxXxX",
"xXxXvXvXvXDXDXvXnXmXmXnXnXbXNXNXBXJXHXCXAXAXPX<X, v ) C { ;X{ p.>XY.qXSX XR.pX6X=X$X|. X X.X X X X|.|.$X&X,X,X9X0XiXaXaXjXjXjXlX",
"vXxXvXxXvXvXvXDXmXnXmXbXlXnXnXMXAXCXCXPXPXPXCXv.B ~ ] [ V.rXrXVXIXBX1XIXPX/.<XrX=X$X X X X X X X X X|. X&X,X<X0XgXgXaXjXjXlXjXcX",
"xXdXdXvXvXvXvXvXbXvXbXbXnXnXNXMXBXJXCXLXMXPX0XI m B V _ C.[.[.rXBXPXVXBXCXB.$XrX=X$X X X X X X&X X X X$X1X,X0XgXiXaXaXaXfXxXlXxX",
"dXyXyXvXxXvXvXvXjXvXbXbXbXnXnXnXzXCXLXPXPXCXP.l -   @ d d s A $..XZXkX$.$.3.5XrX&X$X$X|. X X,X&X$X$X X,X,X<X0XgXgXaXaXaXfXhXjXfX",
"yXyXyXxXdXxXxXvXjXcXvXbXbXnXnXnXBXCXMXMXPXNXz.H j k k l A Z @.=.E.uX7X=.=.T v.rX&X#X#X X X X&X X$X$X X,X,X<X<XgXgXgXaXaXfXfXfXfX",
"yXyXyXyXdXdXdXxXfXjXjXjXlXnXnXnXzXCXLXPXPXP.5 7 t r t y y 4 q 4 3 :.4X9 8 0 o.W.,X&X X X&X,X&X&X X X X X&X,X0X0XaXgXaXfXfXfXfXfX",
"yXeXeXyXyXuXxXyXdXdXfXjXjXbXnXnXzXCXNXLXPX7.# f 6 t r r e e i i 0 :.8Xo...i u H.&X&X X$X&X&X,X,X$X,X,X&X,X<X0X0XgXaXaXaXfXfXfXfX",
"eXeXeXuXpXpXyXsXpXpXdXfXjXlXlXlXzXnXHXPX7Xz 6 6 w w r r e w i 6 z #.y.#.e r 4 H .X.X.X&X X&X,X&X.X X&X,X&X<X<XiXgXiXiXgXaXdXdXdX",
"eXeXeXeXtXtXtXtXtXiXpXpXjXlXlXlXzXnXMXBXE.5 u t t t r y w e i w z y.t.#.i X.2 l [.&X|.&X X X,X,X.X X X&X&X,X9X9X<X9XiXiXiXiXiXiX",
"eXeX+XeX5X5X5XeX*X5XtXpXfXjXjXlXnXnXMXBXP.2 i e e y y y e q e q z t.qXy.0 i 3 c E.&X|. X X X&X$X X X|.|.#X$X&X<X=X=X=X=X=XtXtXwX",
"@X@X@XeX*X*X-X*X%X%X=XiXiXjXlXlXnXlXnXzXz.2 w 6 e y y r q q e q z U.qX#.9 i u f R..X|. X X X X X.X.X).[.).[.{.#X#X#X|.#X#X#X*X*X",
"+X^.@X@X@X@X@X@X%X%X=X5XpXaXlXlXbXlXnXzX$.2 u q q e r t t 6 e q g y.y.O.w e 8 8 v.|.|.|.[.|.|.|.E.[.W.R./.].'.'.'.`.oXoXXXOX+X@X",
"+X+XOX@XOXXX{.OXXX@X*X=XiXaXaXjXlXNXCXlXH 3 u w q e t t 6 6 q 6 g O.O.y e w 9 3 h.[.).'.[.[.'.{.E.R.R.B.F.B.R././.~.!.~.`.`.oXOX",
"+XoXOXOX{.'.`.{.'.{.%X5X5XpXaXjXjXhXvXhX$.2 u 6 q t t t 6 4 w 9 6 q t 4 w w 0 3 g.}.).].].).].].J.M.M.n.V.V.N.N.N.B.N.Q.!.~.`.oX",
"^.+XoXOX'.`.`.(.`.{.%X%X5XpXaXlXjXNXvXkX$.# u 6 q e g t 6 4 q 4 6 w i 9 i w 8 3 1.].E.].].]./.R.M.M.c.c.c.n.n.b.n.N.N.N.Q.!.~._.",
"{.}.}.(.K.E.K.K.E.}.}..X7X0XkXkXkXkXzXuX=.2 f 4 w w g t 4 6 7 6 4 u 7 6 u 7 9 3 7.].F.F.J.R.B.B.n.l.h.h.h.h.h.j.j.n.n.b.N.Q.Q._.",
"`.'.(.E.K.K.K.E.E.^.@X.X6X6X0XkXkXzXzXkX$.# 5 4 4 6 6 6 6 4 6 6 6 f o.z u u u 3 2.].F.R.M.R.F.M.c.h.h.f.f.g.h.k.k.k.j.b.N.Q.!.~.",
"(.(.(.E.K.K.K.K.K.E.}..X7X0X0XkXkXCXzXhX*.X * @ $ l h , , , ; l T }.ZX4XA Z n : 1.R.F.F.M.M.M.c.j.g.[ 1.1.f.1.g.f.k.j.j.n.N.B.!.",
"(.(.E.K.L.L.H.H.P.E.}..X.X7X0XkXkXzXzXlXW   d S H F C v v v n b N *.=.A b a l ; 1.R.M.v.M.v.V.l.h.f.[ Q Q Q [ 1.f.f.k.j.b.N.Q.!.",
"^.~.K.K.P.H.H.P.P.E.E.}..X7X0X0XkXqXvXkXs.X A U s = = s Z Z Z L p c @.c @ @ n : 1.R.M.M.v.V.c.l.g.1.W W [ Q W &.Q f.h.j.n.N.B./.",
"K.K.K.L.v.P.v.H.L.E.W.}..X.X6XkXuXkXkXkXs.a c = a - s Z L E E =.-.=.-.$.A a j m 2.R.v.c.c.v.c.l.g.1.W [ W Q Q Q &.f.k.j.n.N.Q.~.",
"K.K.L.H.z.z.z.z.H.P.E.}..X7X6X0X0XhXzXjXs.a = = M m I s._.1X1XgXwXeX@Xb.i.L c M h.R.c.c.c.c.l.l.1.1.W W W W Q Q Q f.g.j.b.M.B./.",
"J.L.L.m.z.z.z.v.H.H.P.}.}..X7X6XhXaXzXiXb.a O a B [ B.@XeXC.~ f.xXKXJXJX~.i.L M h.R.c.c.c.c.h.h.1.1.T T T W W W Q 1.g.j.n.B.B.R.",
"L.J.H.z.z.x.x.z.z.H.K.(.}.@X5X9XkXkXkXpXh.. ; C T G.G.1X1Xa.a.G.rXVXIXIXKX^.Z b k.J.c.c.v.C.x.h.1.1.T ! T ! W W 1.1.g.j.V.V.B.B.",
"L.L.H.z.z.7.7.z.z.z.L.E.}..X%X6X6XuXvXkXh.. , S V.[ ~ C } } } r.p.} } BXKX@XX M n.J.M.c.h.l.h.h.2.%.[ T T ! W Q Q 1.g.j.b.V.B.R.",
"m.H.m.z.x.x.7.x.x.z.H.K.E.@X%X5XgXfXgX9Xc.h n G Q h.F.F.Q.#X#X,X0XVXhX<XM.Y F.hXM.M.M.l.l.h.h.2.1.1.[ Y W W W Q f.f.f.j.l.V.N.B.",
"z.H.b.x.x.7.*.x.x.z.N.J.E.}.%X6X<XbXaXiX7.n N G [ 7.F.1XXX-XrX<XhXhXVXqX<XnXBXrX].l.M.h.h.h.h.g.1.1.W W T Y W W s.f.f.j.j.b.N.N.",
"b.z.z.7.2.2.%.2.x.x.z.L.K.}.%X%XtXyX6X0XC.> < < / / ( u.r.6.;X:X>X:X2X2X:X .( >X(.l.m.h.h.h.h.2.1.1.T T ! T W Q f.f.g.k.j.n.n.N.",
"z.b.x.7.&.%.2.*.s.s.b.L.K.(.|.%XtX7XvXpXC.1 1 < 1 1 < < / &X;X( u.(  .| ( ^ ( >XJ.M.M.j.h.2.2.1.1.1.W W W ! W W f.f.f.k.b.b.b.b.",
"x.l.x.&.%.%.T %.&.s.l.z.N.~.{.@XpX%XyX6Xf.B v v x C ) ^ / <XG.1 ^ >XSX;Xu.1X5XtXn.M.n.l.h.2.1.%.1.&.W Y ! Y W Q Q f.k.k.k.b.b.k.",
"s.s.&.*.R U U Y *.*.s.l.b.L.(.'.#XtX*X=X[ : m B ~ ) } a.p.C.1X:X:XVXSXVXVXVXCXH.g.m.h.h.1.1.1.%.&.[ W Y Y Y Y ! Q i.i.s.k.k.k.k.",
"T T T R P F F H U E Q &.x.z.L.K.XX#X).,XT   o l m E 1.n.`.@X6XDXdXnXPXPXJXvXU . h.b.j.f.i.Q Q Q ! ! E E P E E E i.i.i.i.i.k.s.k.",
"P P F Z Z B m m P P U ! &.k.z.N.!./.{.R.I @ : Y j.n.(.*XtXvXvXkX`.5XPXPXkXtXP : Q g.i.! Y Y Y E Y Y E P P P P E E E E i.i.i.i.i.",
"R J J G G F S V S G G J R ] 3.5.v.6.A.A.I d & k 3.1.h.F.n.F.~.b.g.'.JXLX_.z.s v P R G F F V V B V V B B B B V F P P P E I E i.P ",
"] R R R _ R R R G I G I J R T [ %.5.2.0.S n ; * B Y [ 3.Y 1.l.L.m.XXmXtXh.L Z v I T R I P ~ P F B B B m m m m B m P P B ~ P P ~ ",
"] ] ` ` _ _ _ _ ' ) ' K ) K ) ' #.` ' ` k S A * : Z E s.l.L.L.L.E..X0XE.=.H S j ] 5.,.{ >.] ` _ J G D D S V D S S N D N V ~ V D ",
"5.4.<.,.] ] ` ` ' ' ' ' ' ' _ ' K ' ' ' k d J k % : P s.s.s.b.N.x.L.&X%.c ,.S - 5.6.6.4.<.,.,.] ] ] ' ' ) G D D D D N N V V V V ",
"9.8.4.<.<.>.>.' ' ' K >.J >.' ' K >.>.>.k @ n =.Z a - a Z L T *.7.7.$.H 5.$.@ l 4.0.A.0.9.9.9.<.<.{ <.{ ] ' ) ' ) J ) D D D D C ",
"w.w.q.9.9.4.4.<.>.>.>.>.>.J ' J >.>.>.>.k & @ s =.H A a c Z Z H H ,.uXzX,.7 $ l 4.Z.Z.q.q.e.e.9.9.8.<.8.<.<.{ <.{ ] ' ' ) ) ) D ",
"T.T.S.T.w.q.9.9.<.,.,.>.` ` R ` J ' >.J k @ & o * n T R R H F T }.ZXAXx.# - @ d 6.e.w.w.w.w.e.w.q.q.0.q.q.8.8.8.<.<.{ <.{ ` ' ' ",
"T.T.T.T.T.T.I.S.e.9.5.5.,.>.J J J K K K j X $ o X . o a k ; * k *.H   . $ @ + l e.w.I.w.w.w.w.w.q.q.q.0.q.q.0.q.8.9.8.4.4.<.<.<.",
"Y.Y.Y.W.T.Y.Y.Y.U.T.S.Z.6.4.,.,.J K K G k @ O X o o .     .         : = O O . N e.w.I.w.I.w.w.e.q.q.q.q.q.q.q.q.q.0.0.0.9.9.r.8.",
"Y.Y.Y.Y.Y.T.Y.Y.Y.Y.Y.Y.D.Z.A.0.,.J G V k @ o o . . + + + +   O = = = o O X X J e.A.I.A.I.I.w.I.S.w.Z.Z.Z.Z.q.q.q.Z.q.q.q.q.9.8.",
"Y.Y.Y.Y.Y.Y.Y.W.Y.Y.Y.W.Y.Y.Y.D.A.6.5._ N * + . O O O . . O O . + O + O X . h 5.e.A.A.Z.I.I.I.I.S.I.S.Z.w.S.w.S.w.S.S.q.q.w.q.q.",
"Y.Y.Y.Y.T.Y.W.Y.Y.Y.Y.Y.Y.Y.Y.Y.U.Y.U.e.5.V ; >           .         . . - B [ 7.e.A.A.w.I.I.I.I.S.S.Z.Z.S.S.S.Y.S.w.S.S.w.w.q.q.",
"S.S.S.S.T.S.Y.Y.W.Y.U.U.U.U.D.U.Y.Y.Z.Z.Z.0.<.G S x h ; * > * * ; h n G 5.5.4.9.e.e.w.w.Z.I.I.I.Z.Z.I.I.S.S.S.S.S.S.S.w.w.q.q.9.",
"S.S.S.T.D.S.T.T.Y.Y.Y.U.U.W.U.U.U.Y.D.Y.0.6.A.0.6.4.[ ] 5.] ] ,.3.,.6.6.5.6.9.9.e.Z.Z.w.I.I.I.I.I.Z.Z.S.S.w.S.S.S.S.S.w.S.q.9.8."
};
