/* XPM */
static char *_b194fba190042b58aac016f61a87ec1[] = {
/* columns rows colors chars-per-pixel */
"64 64 256 2 ",
"   c #01560044030B",
".  c #0AFB008904DD",
"X  c #01B5046B0B25",
"o  c #02AD097B0AB5",
"O  c #0A4A0A6A08E9",
"+  c #13F601500435",
"@  c #1C41014A04A3",
"#  c #163B0A9D0606",
"$  c #166312790B0B",
"%  c #027C09151552",
"&  c #0A4A14B51777",
"*  c #154216F91790",
"=  c #232300EA04B3",
"-  c #2C5F00CE051F",
";  c #27C1059F056C",
":  c #3296011E0505",
">  c #3AB200DF0639",
",  c #3E2C016F0876",
"<  c #34340A3D076E",
"1  c #2AD514A303CB",
"2  c #38E31A1A04DA",
"3  c #24041B5B13B4",
"4  c #376218EE14EA",
"5  c #2CD70D631369",
"6  c #18B222551B4E",
"7  c #3906274118B2",
"8  c #2C01265113BE",
"9  c #01010CCD23A4",
"0  c #009317AA3881",
"q  c #135318D92525",
"w  c #1369267C2E84",
"e  c #287E2AEB2893",
"r  c #34092AD529AA",
"t  c #275A34342D2D",
"y  c #3BF3357E264B",
"u  c #3636275A3669",
"i  c #2B92359C3603",
"p  c #38523AEE34CE",
"a  c #27272C2C348A",
"s  c #2BAC1D9E2525",
"d  c #448A013B08F2",
"f  c #4CF701E50B0B",
"g  c #490901010606",
"h  c #5494018C0A0A",
"j  c #5B1401D60AA1",
"k  c #58D900000505",
"l  c #5075163B1338",
"z  c #64D701740CFB",
"x  c #6B56022D0DC3",
"c  c #69BF00000505",
"v  c #738103030E31",
"b  c #7BE2029C0DC9",
"n  c #72F200000586",
"m  c #6DA002351077",
"M  c #797903C01103",
"N  c #6BC11369176D",
"B  c #46E033331818",
"V  c #50E32CE418AB",
"C  c #4C7F15153198",
"Z  c #71711B712323",
"A  c #47E12A2A238A",
"S  c #48E238EC2842",
"D  c #5252380527C1",
"F  c #424236033299",
"G  c #55BC32652D2D",
"H  c #6D0D30C135B6",
"J  c #383844FC3C85",
"K  c #486D46FE385D",
"L  c #56564862361C",
"P  c #565648772F46",
"I  c #65F8496E3ACD",
"U  c #668E54193B00",
"Y  c #749956C438A6",
"T  c #6B9E48152A91",
"R  c #6A6A61613D3D",
"E  c #00001D5D4404",
"W  c #0CB7297F47F2",
"Q  c #2B2B20204343",
"!  c #71F23CBD4949",
"~  c #50503C3C4444",
"^  c #37374722458E",
"/  c #2AD55454650F",
"(  c #47474C0C4747",
")  c #58584C8C4242",
"_  c #4932536A4A33",
"`  c #589358E24A4A",
"'  c #4B4B56C45454",
"]  c #55A259F35508",
"[  c #67425A3547DA",
"{  c #715F53534D72",
"}  c #4A4A619457BE",
"|  c #5A8D66335B8E",
" . c #6C41620C4873",
".. c #77CD65484966",
"X. c #66E766265999",
"o. c #76326A935858",
"O. c #7A9F75505CEF",
"+. c #5AF4670067CE",
"@. c #5DDE71B16CED",
"#. c #66DF6B3E6675",
"$. c #688D769B6BFE",
"%. c #7A557777662F",
"&. c #68437A557398",
"*. c #754D7916769E",
"=. c #69696F6F7171",
"-. c #62625B5B6060",
";. c #834303030E8F",
":. c #8A0A02830B0B",
">. c #844603C6109E",
",. c #8BCF03CF13FD",
"<. c #93E504561588",
"1. c #9B3D049615D1",
"2. c #9A9A047618E0",
"3. c #8E4E0A8B1596",
"4. c #A503059C14A0",
"5. c #AC5E061D15B1",
"6. c #A2A204F8183F",
"7. c #ACDF076E17E5",
"8. c #B2B20643162E",
"9. c #B31906A018BF",
"0. c #BCDC062E1959",
"q. c #B667091D18A2",
"w. c #BBA708A619A3",
"e. c #B9CE06C7162B",
"r. c #AB2B02830C8D",
"t. c #8EB314CC284D",
"y. c #B3B30FDD238A",
"u. c #C367092E1BE5",
"i. c #C545073E1AE4",
"p. c #CFCF07070F0F",
"a. c #C4990934224D",
"s. c #C2C210102121",
"d. c #85855B9B59DA",
"f. c #8A2A74D45A7A",
"g. c #939378AB5A8D",
"h. c #86A66ACA5151",
"j. c #86DF7A57682A",
"k. c #956A7DD36893",
"l. c #860575756F6F",
"z. c #A5A578E6661D",
"x. c #AC2C7A7A7777",
"c. c #9E9E44442121",
"v. c #7A0883BC7DB6",
"b. c #6C2C82C27A7A",
"n. c #8B58839D6D20",
"m. c #949485046BEC",
"M. c #891285D47589",
"N. c #95488C727B14",
"B. c #97BD88E77650",
"V. c #9C60940C7BF4",
"C. c #976493607CAF",
"Z. c #A6D78B297752",
"A. c #A543957D7C0E",
"S. c #A7518C0C709B",
"D. c #3358704B91B6",
"F. c #434379A49413",
"G. c #72727D7D8A8A",
"H. c #79FA86A68403",
"J. c #750E8ABD8D8D",
"K. c #4F829090B117",
"L. c #434389899F9F",
"P. c #89178C538383",
"I. c #87BA95C88C59",
"U. c #9B9B95458484",
"Y. c #97ED9B45953F",
"T. c #8BF2915E8C8C",
"R. c #A42D9C1284E7",
"E. c #A4759C6D8B74",
"W. c #ABF49D1C8BB0",
"Q. c #A7E7962F83B6",
"!. c #B4DF9BA9875C",
"~. c #A8759B9B912A",
"^. c #B70C984290E6",
"/. c #9151A3239818",
"(. c #AC2CA2628BCB",
"). c #A7A7A0A08E8E",
"_. c #B636A6348C7E",
"`. c #A8F7A5B996BE",
"'. c #B4A0A42D9309",
"]. c #B7D8AA9D97F3",
"[. c #BC11B1B19B1B",
"{. c #9999ABABAA10",
"}. c #A787A9C9A403",
"|. c #BDBDB3B3A285",
" X c #B6E5B8E7AB36",
".X c #B13CB540AFC6",
"XX c #C79FA8A898FB",
"oX c #C8C8B39E9B25",
"OX c #CF4FB3339999",
"+X c #CC42B364A2DD",
"@X c #CD03BC60AC3E",
"#X c #C737B9A4A69C",
"$X c #D275BC76A475",
"%X c #D4C4BD0CAC9C",
"&X c #D5B5B878A8A8",
"*X c #CE78B89BADE6",
"=X c #D8D8B1B1A44E",
"-X c #BB3BC443B939",
";X c #D47EC398ABEB",
":X c #DAF4C3F6AD7A",
">X c #D8D8C794ABDE",
",X c #C832C630B8E3",
"<X c #D46DC4E6B308",
"1X c #DCC5C472B3A7",
"2X c #DD2ECB91B3A7",
"3X c #DB6DCB82BB4D",
"4X c #D643C891B8A6",
"5X c #DB0DD238BF25",
"6X c #CECEC1C1AEAE",
"7X c #E474CD04B519",
"8X c #E4A4CCA1BC51",
"9X c #EAAACCCCBC26",
"0X c #E690C8C8B70C",
"qX c #EB5ED4A2BD0F",
"wX c #E90BD36ABA80",
"eX c #F20BD6D6BE3E",
"rX c #E161C949AFAF",
"tX c #DCC2D386C2C2",
"yX c #D959D7D7CC8C",
"uX c #D73DD4A1CB98",
"iX c #E807CD8DC2C2",
"pX c #E502D46AC368",
"aX c #ECD3D4DCC4CC",
"sX c #EE01DAC6C53B",
"dX c #ED34DB7ECC1D",
"fX c #E76ED914C923",
"gX c #F2C7D656C59A",
"hX c #F461DC54C596",
"jX c #F54DDCCDCC5F",
"kX c #FBEDDDC0CC76",
"lX c #F624D9AAC853",
"zX c #E91BDE77D26B",
"xX c #F575DE26D2F7",
"cX c #FA85DF24D2A3",
"vX c #F6F6DEDED9D9",
"bX c #F0F0CFCFC4C4",
"nX c #E9E9E2E2CD22",
"mX c #F534E221CCCC",
"MX c #FC13E2C3CDDF",
"NX c #FA7AE0E0C747",
"BX c #E7D2E57AD903",
"VX c #F601E420D472",
"CX c #FCA1E50CD3FB",
"ZX c #FD52EA22D62B",
"AX c #FC18E6F4DB13",
"SX c #FCFCEBFFDC52",
"DX c #F564E999DADA",
"FX c #FBFBF171DCDC",
"GX c #FC01EE82E3AD",
"HX c #F7F7ED2CE403",
"JX c #FB73F301E66D",
"KX c #FC3DF435EB6F",
"LX c #F7F7F498E843",
"PX c #FA0DF8D0F3F3",
"IX c #E827EC2BE564",
"UX c None",
/* pixels */
"UXUXUXUXUXUXUXUXUXUXUXUXUXUXUXUXUXUXUXUXUXUXUXUXUXUXUXUXUXUXUXUXUXUXUXUXUXUXUXUXUXUXUXUXUXUXUXUXUXUXUXUXUXUXUXUXUXUXUXUXUXUXUXUX",
"UXUX                                                    o & J ' ( i * o                                                     UXUX",
"UX                                                * p v.-XuXIXLXIXyXBXuXY.+.e *                                               UX",
"UX                                            i v..XBXHXBXIXIXPXKXzXyXFXBXBXIX.X#.*                                           UX",
"UX                                        t I..X X5XnXnXFXnXnXDXmX5XfXmXnX,XtX5X,X}.] $                                       UX",
"UX                                    * v.-XY.-XLXPXPXLXFXnXwXmXhXqX2X>X$X<X5XnXDXtXN.| p O                                   UX",
"UX                                  y I.b.M.BXPXPXLXZXmXNXhXhXeXjXhXwX7XqX2XwXZXSXKXDXn.L J                                   UX",
"UX                                J $.| `.LXKXLXDXnXmXsXNXMXhXmXkXNXNXhXhXeXsXsXsXVXHXPX,Xy e O                               UX",
"UX                            o ] $.| -XDXnXdXaXgXlXMXMXMXCXMXMXMXMXMXMXMXlXsXlXhXdXnXDXPXuXL p O                             UX",
"UX                            _ | &.,XyXtX5X5XaXlXkXNXkXMXMXMXMXZXMXCXCXkXNXkXMXlXhXfXfXzXBXBX=.] *                           UX",
"UX                          i H.H. X,X5X<X2X8XhXjXCXMXMXCXZXMXZXZXZXZXCXMXMXkXMXmXNXqXwXpXpXBXBXP.( o                         UX",
"UX                        o b.b.`. X,X5X<X2XwXhXMXMXCXZXZXSXZXAXZXSXZXZXZXCXMXCXmXmXqXpX8X3X5XyX,X` ( O                       UX",
"UX                        ' b.H. X|.|.4X6X>XaXsXjXMXZXZXAXSXZXSXGXSXGXAXSXCXCXAXjXmXsXqX0X>X4X4X,XN.e J                       UX",
"UX                      * H.$.}. X].[.2X2XrXeXlXjXCXAXSXGXFXFXJXGXKXKXKXJXGXSXAXAXMXeXqX2X2X2X6X X,X` | J                     UX",
"UX                      i | I..X}.(.].2X>X2X7XlXlXMXAXGXGXJXKXPXKXKXKXKXKXGXAXSXCXmXgXwX0X7XrXoX|.,XM.J J.*                   UX",
"UX                      @.J..X XR.(.(.2X2XwX7XqXlXCXCXZXHXHXHXKXKXKXKXKXJXGXAXAXmXjXqX7XrXwX2X[.[.#X}.| H.(                   UX",
"UX      X             & b.{. X XV.V._.>X>XwXwXwXmXjXCXSXSXFXGXGXHXHXGXJXSXSXCXAXNXeXwXwXrXwX2X[.(.`. X_ } b.                  UX",
"UX                    q /.{.}.`.V.R.(.$X2XsXeXwXmXkXCXSXSXGXGXHXHXLXJXGXGXAXCXCXNXNXwXwXwXNX>X_.(.R.`.b.p I.6                 UX",
"UX          X         ' {.J./.C.R.(._.>XwXsXNXeXNXmXCXAXZXSXGXKXKXLXKXGXSXCXCXMXsXwXwXNXNXeX>X[.R.R.`./._ b.t o             X UX",
"UX  X     X     X     +./.@.n.R.A.R._.>X2XwXNXsXjXCXCXCXZXGXKXHXJXJXGXGXSXCXkXkXNXNXwXNXNXwX>X_.C.R. XI.b.b.} o               UX",
"UXX .       .     . O &.b.` M.C.V.R.(.;XwXwXsXsXjXcXCXCXSXKXKXKXKXJXHXKXGXCXkXcXNXsXhXNXhXwX;XR.C.V.R.I.$.@.@.o         X     UX",
"UX                  * +.} K m.V.(.(._.2XwXwXsXhXCXCXcXCXVXGXPXPXPXPXPXKXSXCXcXcXZXhXmXhXeX7X[.V.V.R.C.v.} _ &.o .   .     .   UX",
"UX.     X   .       w ^ t K m.A.'.(.].>XsXnXnXnXVXxXcXAXCXCXGXJXKXHXKXHXCXMXcXCXcXcXmXNXqXwXOXV.V.R.C.X._ } @.6 . .   . .   . UX",
"UX. . . . . . . . . i J t  .N.C.R.).|.5XnX>X5X2X<X4X8X4XpXgXCXvXjXCXAXsXqXcXxXVXdXjXmXmXmXsX2X`.A.V.R..._ } } t   . .   . O . UX",
"UX. . . . . . . .   u t e X.V.N.N.`.].<X_.N.V.X.K  . .m.].oXwX8X0X9XgX1X1X%X1X@X@X4XtXpX4XfX4X`.W.R.U.n._ @.^ J   . + . + . . UX",
"UX. . . . . . . . & #.t $ | E.N.M.N.n.R [ U U 8 O # 2 T Y V.6X2X7X8X:X'.].m.h.U U %.E.'.).#X4X[.V.U.C.U.} } ^ ^ . + + + + + + UX",
"UX@ + + + + + + . ~.%.6 6 #.T.U.O.` B U j.Y S y 8 O o 1 2 T S.>X9XaXoXh.Y B 1 $ $ 1 F [  .m.'.).C.U.V.O.` } } _ . + + + + + + UX",
"UX@ @ @ @ @ @ @ + 7 %.6 p v.E.U.O.y S C.V.A.#XpX@Xn.7 1 1 1 Y 7XsXjXS.2 1 +   $ K o.] 3 7 P U %.P.Q.R.j._ _ ^ P.F + = @ @ = @ UX",
"UX@ @ @ @ @ @ @ # G A e p C.~.E.M.O.m.` O.B.j.l.).#XA.T P 2 7 rXZXZXY 1 1 8 S R.5XxXxX4XL U B ` P.(.'.j.` e i O.u @ = @ = @ = UX",
"UX= = = = @ = = ; { 2 K _ I.~.|.|.`.f.8 8 _ 0 X % ( h.A.S.T ..$XJXnXY B T g.S.O.p S F l.[.K U S j.].'.M.` 6 K 4 A ; ; = ; ; ; UX",
"UX- - - - - ; - = d.T 7 ] Y.E.'.5X#X].m.O.#XJ./ J.zX!.S.sXwX].2XKXnXS.oX2XA...N.W o i | 3 ....B.U.(.].U.| 3 7 T d.= - - - - - UX",
"UX- - : - - - - - L z.V r }.~.~.tXsXdX[.m.$X4X,X,X1XgXHXJX2X#X7XFXmXoXfXFXsXpX2X}.H.}.[.j.(.;X2X X|.].Y.| r G z.d.- : : : - : UX",
"UX- : - : - : : : 5 k.T 5 }.`.].tXdXdXfX*X*X3XgXgXgXdXGXAXsX1XaXJXZX1XdXSXxXgX8XfXvX8X3X|.3XVXfX5X#X|.}.#.L { XXH - > : : : : UX",
"UX> > > > > > : > = d.f.L {.Y.].3XdXxXlXvXiXiXiXxXAXSXAXxXqX:XjXLXSX1XdXVXFXDXjXVXxXfX4XdXzXVXVXpX@X.X-Xu B g.!.< > , , , , , UX",
"UX, , , , , > , d - H XXd.I.U.E.4XpXSXxXvXvXxXkXcXVXHXCXgX7X9XVXLXSX0X7XVXSXAXAXAXjXpXdXDXAXCXVXiX*X|..XG Y x.d.= , , , , , d UX",
"UXd d d d d d d d > C |.U.J.*.N.].%XxXGXAXHXDXCXZXAXSXxX9X1XgXCXJXSX8X7XsXCXSXAXVXxXxXDXHXAXAXfX3X}.}..Xo.Q.+XH > d d d d d d UX",
"UXd d f d d d f g g l ].^.*.=.l.^.XX0XxXGXGXKXGXSXAXCXgX1X1XjXAXJXAX3X%X0XhXZXSXDXCXCXAXGXGXgXiX*X~.Y.{.~.4XXX4 g f g g g f f UX",
"UXf f f f f f f f f , B.'.l.+.-.B.!.XX1XcXAXGXGXSXSXCXqX%XaXvXAXFXSXaX1X7XqXCXFXSXSXGXHXSXxX8X1X|.Q.T.T.x..XQ.d h f h f f f h UX",
"UXh j h h h h h k h f { D ) +.] o.Q.'.&X9XCXZXSXFXSXZX7X+XbXcXZXFXCXlX8X%XwXMXFXSXFXHXAXCXbX1X*X~.k.J.T.1X^.H f h h h h h h h UX",
"UXh h j j j j h h k k ! *XU.| ` o.f.A.+X9XkXZXCXFXDXCX$X+X1XjXSXGXCXNX:XXXwXZXSXSXSXSXSXlX1X&X|.B.*.G.l.k.^.l j h h h j k h j UX",
"UXj j j j z j z z j j l ^.T.#.( %.l.k.XX1XgXNXCXZXSXMX1XxXiXdXGXKXCXgX3X3X7XZXZXSXZXZXCXaX%XXXV.j.*.*.j.S.x.d j j h j j j z j UX",
"UXz z z c z z z z z z k Z H =.] f.Q.k.!.;XbXgXMXZXSXlX%XfXaXvXKXPXSXxXdXAX8XZXFXZXMXMXjX:X+XW.m.j.=.H.].3X! k z z z z z z z z UX",
"UXx z z x z x z x z z m j g { -.%.'.B.^.$X9XgXkXMXZXaX..B.'.iXdXVXdX3X*X%X+XZXFXMXNXhX9X%XoX^.B.n.=.H.~.].N x z x x z x x x x UX",
"UXx x x x x x m x m m m x j ! | o.^.Q.~.+XrXeXNXkXCXfX7 ; 7 k.Z.W.+Xk.F 7 U ZXFXCXeXeX1X$X[.W.E.M.*.-.Z N m x N m m m m m m m UX",
"UXv m v m m v v m m m m v c ! -.[ W.Q.W.#X:XqXgXmXCXVXI .   4 D D L $ . + I JXZXNXeXwXrX%X#X'.U.*.b.! n v v v v v v M v v v v UX",
"UXv v v m v v v v M M M v b ! =.-.m.B.W.XX@X7XlXMXCXSXaXj.3 . # + . $ 4 I %XZXMXeXqX7X1X%X].A.U.#.*.H b v M v v v v v v M v M UX",
"UXb M M b b >.M M b b b ;.n H =.X.j.n.C.].;XeXsXhXVXVXVXpXC.S # # 7 o.'.mXSXZXMXNXeX>X:X%X'.A.j.$.v.Z ;.M M >.M b b b >.b M M UX",
"UX>.b ;.>.>.;.>.;.;.;.;.;.:.Z #.#.n.o.N.(.#X:XwXaXlXdXzXpX<X'.I D !.oXtXzXCXmXmXNXeX$XOX+XW.B.l.M.*.v :.>.>.>.>.b >.>.>.>.>.>.UX",
"UX>.>.>.>.>.,.>.>.>.>.>.>.,.N #.X.M.O.j.).oX&X1X%X<X3XjXpXiXiX'.U.|.*X4XfXfXpXpXwX:X$XoX].N.n.N.*.l.b ,.>.,.,.>.,.,.,.,.>.>.,.UX",
"UX,.:.<.,.,.,.,.,.,.,.,.<.,.M d.` n.N.O.R.R.!.A.!._.6XpXbXkXAXAXBXfX4X6X#X#X#X#X6X@X_.(.(.n.n.%.&.d.:.,.,.,.,.<.,.,.,.<.,.<.<.UX",
"UX,.<.,.,.<.<.3.<.<.3.<.<.:.<.! | o.B.X.R.B.h.A A I f.x.z.h.z.0XbXXXoX%X].C. .R m.U.B.A.R.o.V.o.#.! :.1.<.<.1.1.<.<.<.<.<.<.<.UX",
"UX<.<.1.<.1.<.<.<.<.<.<.1.<.<.t.` ` m.[ N.f...f.g...I A G I l N Z l l D G 3 # # 3 D m.(.n.o.m.) #.3.1.1.<.<.<.<.1.<.1.<.<.1.2.UX",
"UX2.1.2.2.1.1.1.1.2.2.2.1.1.1.<.H _ m.) O.g.A.>XOXg.S.=X=XbX9Xx.!.XX!.{ U T ..h.D Y S.A. .O.O._ { <.1.1.6.1.1.<.1.1.1.1.1.1.1.UX",
"UX6.6.4.6.6.6.4.6.4.6.4.6.6.1.4.t.p %.[ P S._.OX;XOXh.Y z.z.^.XXXXXX^.x...m.>X$XOX!.S.o.S n.` _ 3.r.4.1.6.6.6.6.4.6.6.6.6.6.4.UX",
"UX4.4.4.6.4.4.4.4.4.4.4.4.4.4.r.2.a ` o.S S._._.OX].S.D ; < 1 2 2 2 2 V g.$X$XOXOX_.m.P L n.K Z 4.4.4.4.4.4.4.4.4.4.5.4.6.6.4.UX",
"UX4.4.5.4.4.4.4.4.4.5.4.4.4.4.4.6.5 a O.U m.S._.OXOX_.A.h.U I [ U T g._.$X$XOXOXoX!.g.P U. .q H r.4.5.5.5.5.4.5.5.7.7.7.7.5.5.UX",
"UX7.7.7.5.5.7.7.7.5.7.7.8.8.7.7.q.4 . K P  .S.!.$XiXgXgXkXCXAXGXSXMXkXaX9X0X&XOXoX!. .o.n.$ & ) 2.8.8.5.7.9.7.7.8.8.9.9.9.7.8.UX",
"UX8.8.8.9.8.8.9.7.9.9.9.9.8.8.e.t.i     $ 3 ..!.OX9XgXgXkXcXbXxXAXCXlXcXkX1X%X%X_...P [ 3   & q C 9.8.8.9.9.e.9.9.9.9.9.9.9.8.UX",
"UX9.e.q.q.q.9.e.e.e.e.e.0.e.e.y.5 / o       $ O.!.+X1X9XiXbXbX1XbXlXbXbX9X%X@X'. .y e $     8 w % C q.i.0.e.0.e.e.e.e.q.q.q.q.UX",
"UXe.w.w.e.w.e.e.w.0.0.0.e.e.a.C o F.W     o   $ [ Q.XX*X+X+X*X+X=X0X0X1X&XoX_.) $ O         ^ / X 0 Q y.0.0.0.0.e.0.0.0.e.e.q.UX",
"UX0.0.0.i.i.0.i.u.i.a.a.i.a.C 9 % F.D.q         O y [ f.k.Z.Q.Z.Z.Q.A.Z.m.k.y   o X     . q L.F.X 9 E Q t.i.i.a.w.0.0.0.0.e.e.UX",
"UXw.i.0.i.i.u.u.i.a.u.i.u.C 0 % & F.D.D.%     o o X % q s u u r u s s r r q % X o       & F.K.F.% 9 0 E W H y.i.i.a.i.i.i.i.0.UX",
"UXUXw.u.a.a.a.a.s.a.a.y.Q E 0 % 9 F.F.L.D.o     o % % % % % % % . % % % % o % o o   O 6 L.K.K.L.0 9 0 E E E Q t.y.u.c.i.u.u.UXUX",
"UXUXUXUXUXUXUXUXUXUXUXUXUXUXUXUXUXUXUXUXUXUXUXUXUXUXUXUXUXUXUXUXUXUXUXUXUXUXUXUXUXUXUXUXUXUXUXUXUXUXUXUXUXUXUXUXUXUXUXUXUXUXUXUX"
};
